<svg fill="none" height="120" viewBox="0 0 217 120" width="217" xmlns="http://www.w3.org/2000/svg"><g clip-rule="evenodd" fill-rule="evenodd"><path d="m31.558 26.894c-.308 0-.557.235-.557.525v30.061c0 .29.25.524.557.524h31.962c.308 0 .558-.234.558-.523v-30.063c0-.29-.25-.525-.558-.525h-31.96z" fill="#723a82"/><path d="m72.068 42.276c0 8.48 7.335 15.378 16.352 15.378 9.016 0 16.352-6.898 16.352-15.378 0-8.482-7.336-15.382-16.353-15.382-9.016 0-16.351 6.9-16.351 15.382z" fill="#ea862d"/><path d="m126.188.144a.552.552 0 0 0 -.538.39l-15.795 56.637a.503.503 0 0 0 .097.454c.107.13.27.204.442.204h31.773a.568.568 0 0 0 .443-.204.503.503 0 0 0 .098-.455l-15.98-56.636a.551.551 0 0 0 -.54-.39z" fill="#0089bc"/><path d="m151.296 26.561c-.309 0-.559.234-.559.524v30.06c0 .29.25.526.559.526h31.958c.31 0 .558-.236.558-.526v-30.06c0-.29-.248-.524-.558-.524z" fill="#51af46"/><path d="m18.784 94.133v-12.03c0-2.18-2.373-3.272-7.118-3.272-2.855 0-4.718.202-5.592.604-.874.404-1.31 1.293-1.31 2.668v12.03c0 1.376.49 2.35 1.47 2.92.981.571 2.65.856 5.004.856 2.639 0 4.556-.285 5.752-.856 1.195-.57 1.794-1.544 1.794-2.92zm4.816 6.393h-4.709v-2.87c0 .873-.776 1.653-2.328 2.341-1.553.689-3.666 1.033-6.342 1.033-3.746 0-6.386-.552-7.92-1.661s-2.301-3.139-2.301-6.091v-10.72c0-2.451.803-4.212 2.408-5.285 1.605-1.074 4.3-1.611 8.082-1.611 2.034 0 3.915.251 5.645.755 1.73.502 2.613 1.292 2.65 2.365h.106a262.94 262.94 0 0 1 -.107-6.19v-7.299h4.816zm40.273-8.505v2.114c0 2.619-.972 4.43-2.917 5.437-1.945 1.006-4.735 1.51-8.374 1.51-2.783 0-5.744-.201-8.883-.604v-3.474c4.281.64 7.277.957 8.99.957 2.142 0 3.746-.192 4.816-.58 1.07-.384 1.607-1.182 1.607-2.39v-2.466c0-1.04-.376-1.78-1.125-2.215-.749-.436-1.963-.654-3.639-.654h-2.942c-2.713 0-4.764-.53-6.156-1.585-1.391-1.058-2.086-2.51-2.086-4.354v-2.265c0-3.825 3.852-5.739 11.558-5.739.856 0 3.48.135 7.869.403v3.27c-3.07-.468-5.763-.703-8.082-.703-2.57 0-4.309.235-5.218.704-.91.47-1.364 1.259-1.364 2.367v2.063c0 1.645 1.587 2.467 4.763 2.467h2.997c5.458 0 8.186 1.912 8.186 5.737zm25.39 8.356c-2.356.47-5.12.705-8.295.705-1.57 0-2.792-.025-3.667-.075-.874-.052-1.872-.221-2.996-.504-1.124-.285-1.98-.696-2.568-1.234-.589-.536-1.097-1.315-1.525-2.339-.43-1.024-.643-2.292-.643-3.8v-8.962c0-1.34.133-2.5.401-3.472.267-.973.687-1.76 1.257-2.365a8.582 8.582 0 0 1 1.766-1.459c.607-.368 1.435-.628 2.489-.78a35.93 35.93 0 0 1 2.783-.303 54.37 54.37 0 0 1 3.238-.076c2.463 0 4.923.254 7.385.756v3.322c-2.783-.672-5.442-1.007-7.974-1.007-2.677 0-4.415.301-5.217.905-.803.604-1.205 1.88-1.205 3.826v9.966c0 1.78.455 2.963 1.364 3.55.91.586 2.775.88 5.594.88 2.532 0 5.136-.318 7.813-.957zm24.081-6.845v-9.866c0-2.247-.481-3.64-1.445-4.177-.963-.536-2.818-.806-5.566-.806s-4.603.27-5.565.806c-.964.538-1.445 1.93-1.445 4.177v9.866c0 1.074.124 1.93.375 2.566.25.638.712 1.1 1.391 1.385a7.05 7.05 0 0 0 2.088.53c.712.067 1.765.1 3.156.1 1.393 0 2.443-.033 3.157-.1a7.08 7.08 0 0 0 2.089-.53c.677-.285 1.139-.747 1.391-1.385.25-.636.374-1.492.374-2.566zm4.923-9.111v8.456c0 1.51-.196 2.786-.588 3.826-.392 1.042-.891 1.846-1.498 2.416-.608.57-1.472 1.006-2.597 1.308a16.684 16.684 0 0 1 -3.211.554c-1.016.068-2.362.101-4.04.101-2.14 0-3.807-.068-5.005-.201a12.47 12.47 0 0 1 -3.584-.982c-1.195-.52-2.051-1.35-2.569-2.492-.517-1.14-.775-2.65-.775-4.53v-8.456c0-1.61.204-2.97.616-4.077.41-1.107.91-1.962 1.498-2.567.588-.604 1.454-1.064 2.595-1.383 1.141-.318 2.202-.512 3.184-.579.981-.068 2.328-.102 4.04-.102 1.713 0 3.059.034 4.04.102.982.067 2.044.26 3.185.579 1.142.319 2.007.78 2.594 1.383.589.605 1.088 1.46 1.5 2.567.41 1.108.615 2.466.615 4.077zm27.058-8.249-9.045 24.363h-5.779l-9.312-24.363h5.085l7.172 20.436h.265l6.958-20.436zm20.412 10.262v-3.824c0-1.478-.482-2.492-1.447-3.046-.964-.554-2.569-.83-4.814-.83-2.142 0-3.73.269-4.765.805-1.034.537-1.551 1.561-1.551 3.07v3.825zm4.815 2.97h-17.392v3.675c0 1.712.641 2.928 1.926 3.65 1.283.72 3.193 1.082 5.726 1.082 2.462 0 5.37-.404 8.723-1.21v3.473c-3.21.671-6.333 1.008-9.365 1.008-7.921 0-11.88-2.483-11.88-7.45v-9.614c0-2.985.909-5.117 2.73-6.391 1.819-1.275 4.727-1.914 8.723-1.914 3.744 0 6.483.613 8.214 1.838 1.73 1.224 2.595 3.381 2.595 6.467v5.387zm21.311-9.814h-2.676c-2.213 0-3.844.269-4.895.805-1.053.536-1.579 1.542-1.579 3.02v17.163h-4.818v-24.36h4.549v3.975c0-1.174.776-2.215 2.328-3.121 1.552-.905 3.131-1.359 4.737-1.359h2.354v3.876zm24.958-3.418-13.003 34.831h-5.031l4.067-10.117-10.007-24.714h5.245l7.223 19.882h.109l6.527-19.882z" fill="#1a1919"/><path d="m58.264 113.278c-.065-1.028-.525-1.979-1.956-1.979-1.064 0-1.904.951-1.904 1.979zm1.102 1.752c-.262 1.029-.983 2.269-3.124 2.269-1.943 0-3.085-1.403-3.085-3.319 0-2.068 1.024-3.683 3.322-3.683 1.996 0 2.98 1.528 2.98 3.871h-5.056c0 1.365.67 2.166 2.01 2.166 1.09 0 1.786-.814 1.786-1.304zm2.509-4.546v.939h.04c.249-.35.892-1.126 2.087-1.126 1.076 0 2.43.426 2.43 2.305v4.509h-1.17v-4.083c0-1.141-.34-1.729-1.483-1.729-.657 0-1.826.401-1.826 2.204v3.608h-1.167v-6.627zm7.078 3.294c0 1.441.59 2.556 1.863 2.556.736 0 1.84-.475 1.84-2.242 0-1.09-.12-2.793-1.8-2.793-1.812 0-1.903 1.615-1.903 2.479zm4.87-3.294v6.076c0 .951-.025 3.332-3.229 3.332-.828 0-2.416-.213-2.64-1.98h1.17c.21.966 1.285 1.053 1.56 1.053 1.918 0 1.971-1.441 1.971-2.606-.329.514-.945.94-1.877.94-2.35 0-3.021-2.117-3.021-3.696 0-1.891 1.037-3.306 2.89-3.306 1.194 0 1.745.637 2.087 1.126v-.939h1.09zm1.707 6.627h1.17v-9.093h-1.17zm2.877 0h1.199v-6.627h-1.199zm0-7.829h1.198v-1.264h-1.198zm6.813 3.094c0-.414-.158-1.115-1.64-1.115-.355 0-1.38.112-1.38.939 0 .552.369.69 1.852 1.028 2.048.463 2.52.977 2.52 1.879 0 1.366-1.18 2.192-2.744 2.192-2.757 0-2.928-1.516-2.979-2.318h1.129c0 .489.183 1.353 1.838 1.353.827 0 1.588-.288 1.588-1.052 0-.525-.407-.802-2.087-1.114-1.497-.276-2.246-.727-2.246-1.755 0-1.44 1.26-2.116 2.626-2.116 2.481 0 2.64 1.753 2.653 2.079zm3.86-1.003h.027c.328-.413.906-1.076 2.022-1.076 1.076 0 2.43.426 2.43 2.305v4.509h-1.169v-4.335c0-.902-.263-1.477-1.379-1.477-.958 0-1.93.526-1.93 2.204v3.608h-1.17v-9.093h1.17v3.355zm11.029 2.405c0 1.441.592 2.556 1.865 2.556.736 0 1.839-.475 1.839-2.242 0-1.09-.119-2.793-1.798-2.793-1.814 0-1.906 1.615-1.906 2.479zm-1.167-3.294h1.088v.939c.382-.537.894-1.126 2.102-1.126 1.838 0 2.877 1.428 2.877 3.306 0 1.579-.658 3.696-3.021 3.696-.932 0-1.548-.426-1.879-.965v3.396h-1.167zm8.482 0v1.103h.026c.459-.764 1.075-1.29 1.957-1.29.144 0 .207.012.312.038v1.151h-.457c-1.089 0-1.76.815-1.76 1.78v3.845h-1.168v-6.627zm8.009 2.794c-.066-1.028-.526-1.979-1.955-1.979-1.065 0-1.904.951-1.904 1.979zm1.103 1.752c-.263 1.029-.985 2.269-3.125 2.269-1.943 0-3.086-1.403-3.086-3.319 0-2.068 1.024-3.683 3.322-3.683 1.996 0 2.982 1.528 2.982 3.871h-5.055c0 1.365.668 2.166 2.007 2.166 1.09 0 1.786-.814 1.786-1.304zm5.358-2.654c0-.414-.158-1.115-1.641-1.115-.355 0-1.378.112-1.378.939 0 .552.366.69 1.85 1.028 2.046.463 2.52.977 2.52 1.879 0 1.366-1.182 2.192-2.742 2.192-2.759 0-2.932-1.516-2.981-2.318h1.127c0 .489.185 1.353 1.839 1.353.827 0 1.589-.288 1.589-1.052 0-.525-.407-.802-2.088-1.114-1.497-.276-2.245-.727-2.245-1.755 0-1.44 1.26-2.116 2.626-2.116 2.48 0 2.639 1.753 2.652 2.079zm7.101.338c-.144-.889-.655-1.415-1.639-1.415-1.445 0-1.904 1.315-1.904 2.492 0 1.14.289 2.543 1.891 2.543.787 0 1.458-.551 1.652-1.565h1.13c-.117 1.052-.787 2.53-2.822 2.53-1.942 0-3.1-1.403-3.1-3.319 0-2.042 1.039-3.683 3.323-3.683 1.827 0 2.508 1.265 2.599 2.417zm3.454-1.341h.027c.329-.413.907-1.076 2.022-1.076 1.077 0 2.431.426 2.431 2.305v4.509h-1.17v-4.335c0-.902-.262-1.477-1.378-1.477-.958 0-1.932.526-1.932 2.204v3.608h-1.168v-9.093h1.168zm9.022 4.961c1.667 0 2.022-1.653 2.022-2.543 0-.888-.355-2.53-2.022-2.53s-2.023 1.642-2.023 2.53c0 .89.356 2.543 2.023 2.543zm0-6.037c2.219 0 3.216 1.79 3.216 3.494 0 1.705-.997 3.508-3.216 3.508-2.22 0-3.217-1.803-3.217-3.508 0-1.704.997-3.494 3.217-3.494zm7.379 6.037c1.667 0 2.022-1.653 2.022-2.543 0-.888-.355-2.53-2.022-2.53-1.668 0-2.023 1.642-2.023 2.53 0 .89.355 2.543 2.023 2.543zm0-6.037c2.219 0 3.217 1.79 3.217 3.494 0 1.705-.998 3.508-3.217 3.508-2.22 0-3.217-1.803-3.217-3.508 0-1.704.997-3.494 3.217-3.494zm4.543 6.814h1.169v-9.093h-1.169z" fill="#4d4e4c"/><path d="m34.923 73.173c-.11-.018-.17.065-.185.15-.059.347-.105.694.004 1.043.024.074.058.103.129.104.075.002.107-.042.128-.11.059-.184.036-.372.027-.632.002-.08.009-.23.006-.381 0-.076-.018-.159-.11-.174zm-.529-.003c-.27.36-.223.745-.172 1.133.013.106.047.162.16.155.125-.006.13-.089.132-.183.002-.29.008-.579.011-.868.001-.088-.002-.178-.131-.238zm-2.702 0c-.097.375-.058.756-.018 1.136.008.076.063.1.136.094.08-.007.15-.021.159-.12a3.093 3.093 0 0 0 -.065-.934c-.016-.075-.07-.161-.212-.177zm1.149-.002c-.054-.007-.097.02-.119.071-.148.353-.107.713-.036 1.072.017.083.101.101.183.098.109-.004.106-.087.11-.162.001-.031-.003-.063-.002-.046-.016-.352-.067-.622-.043-.896.005-.064-.014-.128-.093-.137zm-.477.066c-.094-.01-.12.077-.152.14-.155.315-.085.636-.024.957.015.081.091.074.151.074.087 0 .15-.043.15-.133.002-.124-.012-.25-.02-.375h-.018c.003-.163.011-.326.008-.488-.002-.07.01-.163-.095-.175zm1.478 1.219a.23.23 0 0 0 .11-.014c.03-.014.07-.049.07-.075.007-.398.054-.799-.025-1.273-.29.316-.37.592-.308.912a.4.4 0 0 1 .008.075c0 .094.07.24-.056.259-.146.022-.11-.137-.115-.228-.01-.202-.008-.405-.017-.608-.007-.13.015-.272-.068-.39-.187.042-.134.218-.212.304-.279.302.038.624-.042.931.203.134.433.093.655.107z" fill="#e2a671"/><path d="m31.036 74.273c-.001.05.032.102.092.097.085-.007.092-.081.085-.14-.056-.46-.03-.928-.16-1.38-.123.476-.003.95-.017 1.423zm.435-.317c-.014-.202-.041-.404-.057-.606a.45.45 0 0 1 .215-.42c.136-.093.242.011.334.093.08.072.146.072.236.023a.974.974 0 0 1 .247-.088c.174-.038.394-.123.516-.036.22.157.342-.06.51-.056.012 0 .03-.002.037.005.132.163.302.031.436.06.194.043.39-.06.547.013.198.092.326.004.537-.062-.082-.06-.1-.085-.119-.085l-2.962-.013c-.152-.001-.303-.01-.456-.012-.099 0-.175.042-.182.152-.031.464.031.92.118 1.373a.86.86 0 0 0 .043-.341zm3.835-1.084a3.834 3.834 0 0 0 -.04 1.54c.166-.514-.024-1.029.04-1.54z" fill="#f6c590"/><path d="m35.614 75.911c-.117-.137-.23-.202-.37-.025-.02.027-.085.001-.088-.035-.01-.156.12-.232.206-.327.067-.075.13-.01.18.053.067.087.137.17.204.254-.012.028-.017.055-.033.07-.028.027-.073.04-.099.01zm-.61-.598c-.129.1-.122-.138-.217-.18-.032-.016-.06-.042-.088-.061-.107.056-.086.212-.248.274-.052-.203.045-.34.153-.463.054-.06.139-.057.205-.004a.384.384 0 0 1 .094.115c.052.106.222.227.102.32zm-1.094.496c-.092-.025-.118-.12-.164-.187-.145.057-.14.205-.256.212-.046-.023-.061-.058-.041-.094.03-.054.069-.105.106-.155.061-.086.14-.167.25-.13.127.043.17.175.207.292.018.057-.044.08-.102.063zm-.615-.608c-.09.168-.18-.016-.267-.053-.067-.028-.114-.027-.155.038-.045.073-.077.164-.206.14-.041-.197.084-.32.2-.447.049-.052.112-.048.167-.003.03.023.055.053.078.082.063.082.252.114.183.243zm-.82.568c-.077.164-.16-.015-.233-.04-.137-.05-.167.152-.338.089.041-.165.146-.266.215-.367.106.01.145.061.18.111.054.076.23.092.175.207zm-1.022-.687c-.079.023-.048.23-.221.217-.061-.141.053-.238.098-.341.069-.162.167-.178.276-.041.084.104.236.144.288.32-.201.024-.26-.157-.44-.155zm-.235.74c-.021.05-.09.072-.126.044-.149-.122-.294-.055-.515.048.236-.434.393-.466.612-.194.022.027.04.076.029.102zm4.476-.476c-.151-.506-.429-.706-.99-.707-1.147 0-2.294-.072-3.443-.049-.166.003-.265.053-.311.21-.084.281-.25.524-.375.786-.085.18-.256.308-.325.53 1.961.267 3.908.112 5.883.228-.095-.411-.343-.673-.44-.998zm-1.756-5.234c-.047.033-.094.016-.132-.025-.017-.018-.036-.036-.05-.056-.107-.15-.206-.165-.304.01-.018.032-.052.055-.154.022.03-.22.101-.416.327-.571.115.156.18.337.319.46.048.044.063.113-.006.16zm.27 1.398c.064-.098.06-.288.229-.252.146.03.228.178.302.308.014.023-.002.073-.02.103-.021.035-.072.041-.096.01-.165-.208-.3.004-.455.052-.041-.124.008-.171.04-.22zm-.394.185c-.094.104-.144-.006-.204-.066-.16-.16-.16.175-.318.076-.054-.16.091-.274.166-.404.04-.07.133-.064.193.004.04.047.07.105.103.158.045.072.136.148.06.232zm-.886-3.183c-.012-.065.042-.143.065-.215.027-.085.048-.181.165-.173.095.005.11.088.137.16.034.093.08.182.118.268-.004.02-.004.033-.01.044-.028.059-.111.065-.122.037-.075-.192-.31.098-.353-.12zm.09 1.515c-.098.125-.133-.036-.197-.066-.121-.056-.133.084-.206.112-.03.012-.078.015-.1-.002-.02-.016-.035-.074-.023-.096.081-.148.17-.292.25-.423.166.043.145.17.196.25.044.066.15.136.08.225zm-.399 1.615c-.11.15-.208-.024-.307-.082-.063-.039-.117-.006-.162.046-.049.057-.099.115-.233.095.062-.255.22-.4.384-.537.108.053.139.138.156.223.023.112.247.14.162.255zm.423-4.975c-.437 1.844-.94 3.664-1.825 5.442 1.343.106 2.632.154 3.961.03-.334-.95-.902-1.754-1.261-2.655-.364-.913-.533-1.884-.875-2.817zm.102-1.323c-.004-.016-.019-.01-.02.028-.006.093-.006.188-.007.282h.02z" fill="#717777"/><path d="m37.408 77.584c.001-.021.005-.043-.003-.06-.011-.025.028-.066-.026-.075.002.025 0 .05.005.075.005.02.015.04.024.06zm-8.373-.724c.009.002.017-.007.026-.01-.003-.008-.003-.02-.007-.023-.024-.018-.04-.01-.04.017 0 .006.013.017.021.017zm.152 1.321.012.011-.01-.01c-.019-.236 0-.477-.139-.77.01.315.028.55.137.77zm.315.657c-.009.241.047.293.283.3.148.004.206-.059.206-.202.001-.231-.06-.334-.224-.318-.13.013-.298.011-.265.22zm7.677.339c.09-.016.236.046.225-.148-.01-.18-.154-.302-.355-.297-.09.001-.128.035-.128.135.002.274.022.307.258.31zm-5.136-.177c.008.049.01.1.02.149.016.1.097.101.17.099.075-.004.107-.05.106-.125 0-.124.004-.25.007-.373-.337-.046-.346-.038-.303.25zm2.89.258c.157.077.261-.022.243-.246-.009-.1.027-.242-.152-.25-.188-.01-.156.114-.137.246.026.069-.09.183.046.25zm-4.463-.492c-.004.061.002.124.007.186.006.095.043.17.152.173.13.003.12-.093.116-.181-.002-.062-.002-.124-.007-.185-.005-.07-.046-.114-.117-.117-.084-.003-.145.033-.151.124zm-1.396-.075c-.08.006-.103.058-.1.13.006.127.003.266.179.278.09.007.132-.054.137-.144.006-.133-.097-.261-.216-.264zm4.672.231c-.004.266.046.349.27.336.129-.009.32.057.315-.2-.006-.263-.036-.306-.3-.313-.12.008-.28-.052-.285.177zm-.696-.187c-.149 0-.236.04-.228.219.012.24.053.326.214.327.203.003.155-.155.17-.27-.023-.11.064-.278-.157-.276z" fill="#f6c590"/><path d="m36.75 78.35.02-.97-.078-.004c-.057.326-.015.65.059.973zm-3.07.167c.069-.246.04-.45-.017-.659-.09.206-.09.34.016.66zm-.978-.799.148-.14-.157.007.01.133zm.05.739-.055-.714c-.116.24-.082.478.055.714z" fill="#e2a671"/><path d="m30.13 78.475c.151 0 .192-.084.19-.22-.01-.298-.012-.597-.018-.979-.187.379.114.732-.116 1.028-.122-.053-.09-.136-.092-.206-.008-.29-.01-.582-.022-.873-.008-.205-.014-.204.21-.251-.236-.12-.236-.12-.487-.112-.088.48.04.955.056 1.433.006.17.144.178.278.18zm5.726-1.515c-.107-.015-.16.043-.185.145-.105.438-.094.881-.057 1.325.008.089.072.134.16.129.108-.008.093-.092.092-.168 0-.33-.006-.662.006-.991.005-.11-.066-.318.11-.306.157.01.063.209.07.323.005.073-.026.149-.035.224a2.11 2.11 0 0 0 -.003.607c.05.29.071.303.397.263-.13-.221-.096-.468-.095-.704.002-.23-.139-.482.084-.735.087.178.056.318.062.453.004.134-.033.272.039.4-.023-.323-.11-.655.192-.931-.307-.068-.574.001-.837-.034zm-.743-.005-.075-.003c-.393-.008-.395-.007-.342.399.007.052-.028.124.058.159.111-.123.23-.26.413-.187.163.064.148.251.198.388.025.067.007.15.017.224.018.144-.04.295.035.432-.037-.36.024-.718.024-1.078 0-.311.063-.317-.328-.334zm-4.54-.01c-.07 0-.073.056-.082.103-.096.474-.027.94.045 1.442.143-.08.155-.16.156-.231.01-.365.014-.73.02-1.094a.562.562 0 0 0 -.01-.112c-.014-.07-.054-.11-.129-.108zm.252 1.045c-.002.102-.01.23-.005.354.003.112.076.153.18.139.096-.012.13-.078.116-.162-.046-.276-.014-.554-.024-.832a9.469 9.469 0 0 0 -.018-.378c-.005-.08-.026-.16-.127-.15-.074.006-.109.073-.097.139.054.292-.085.575-.025.89zm3.697-.736c-.053-.27-.054-.275-.344-.278-.278-.003-.556.012-.833.002-.618-.022-.63-.013-.484.59.104-.106.17-.264.335-.286.152-.019.25.126.384.179.006-.03.006-.042.01-.054.037-.115-.101-.312.03-.338.193-.04.109.207.19.305.053.014.091-.025.136-.041.33-.117.51.006.513.354.002.178-.01.355-.009.532 0 .089-.022.19.086.273.063-.319.022-.61.03-.9.003-.11-.023-.226-.044-.338zm-2.329-.276h-.113c-.14-.003-.21.067-.203.206.003.07-.027.149.035.21.373-.182.375-.183.716.004-.01-.403.092-.412-.435-.42zm-.827.282c.105-.065.303.099.323-.136.013-.143-.089-.157-.205-.159-.111-.006-.223.006-.23.163-.002.074.018.187.112.132zm6.384 5.392h-.023l-.02 1.005h.021l.021-1.005zm.02 1.869.008-.362a.488.488 0 0 0 -.008.362zm-7.596-7.817c.58.05 1.161.113 1.742.11.67-.002 1.343-.035 2.212-.012.536-.005 1.27-.05 2.005-.014a.523.523 0 0 0 .114-.002c.06-.01.141-.01.152-.084.011-.082-.046-.145-.122-.17-.046-.017-.1-.007-.15-.009-.988-.022-1.975-.043-2.962-.068-.557-.014-1.117.02-1.671-.053a7.025 7.025 0 0 0 -1.285-.047c-.177.007-.283.054-.294.199-.012.156.17.141.26.15zm7.568 2.828c-.263.926-.075 1.815-.073 2.702l.082-.008.01-.527c.003-.19.003-.38.007-.568.004-.178.015-.354.013-.532-.004-.188-.027-.377-.029-.566-.002-.156.093-.32-.01-.5zm-1.033.215c.143 1.626.105 3.263.335 4.882.07-1.728-.13-3.44-.225-5.202-.125.121-.118.227-.11.32zm-.595.492c-.016-.418-.055-.835-.084-1.252-.008-.123-.034-.217-.196-.212-.18.005-.163.124-.157.237.018.38.043.757.062 1.135.03.635.065 1.266.083 1.899.023.811.031 1.623.05 2.433.002.115.01.239.178.234.17-.006.2-.105.193-.257-.032-.708-.095-1.417-.076-1.95-.02-.873-.029-1.572-.053-2.267zm-6.2-.892a3.878 3.878 0 0 0 -.037 1.087c.028.34.075.68.083 1.02.021.836.02 1.67.035 2.506.005.214.044.428.062.641.007.092.04.146.135.14.11-.004.109-.087.104-.164-.023-.354-.067-.707-.07-1.06-.013-1.306-.154-2.605-.188-3.91-.003-.08.022-.178-.124-.26zm-.793.133c-.003-.057-.034-.094-.097-.087-.047.004-.064.042-.067.08-.005.063.002.126 0 .189-.043 1.19-.027 2.381-.013 3.573-.004.177-.003.354-.012.532-.011.239-.06.476-.016.718.016.087.05.138.141.142.1.005.183-.024.193-.134a4.35 4.35 0 0 0 .014-.456c-.032-1.343-.12-2.683-.122-4.026 0-.176-.01-.355-.02-.531zm1.897-.794c-.104.02-.075.114-.08.186-.063.8-.004 1.597.075 2.393.064.641.133 1.284.14 1.93.004.445.029.888.05 1.331.004.094-.019.228.126.236.157.01.128-.127.131-.22.006-.153 0-.305-.005-.457-.012-.316-.027-.633-.042-.95h-.017c.005-.253.023-.507.013-.76-.042-1.088-.092-2.176-.14-3.264-.004-.101.015-.207-.037-.3-.046-.079-.113-.146-.213-.125zm3.734 5.547c-.745.061-1.49-.02-2.236-.044-.226-.009-.453-.026-.68-.04-.09-.006-.197-.01-.213.102-.025.174-.052.357.078.515.15-.135-.03-.287.066-.405 1.177-.02 2.348.024 3.515-.057-.177-.04-.35-.085-.53-.07z" fill="#f6c590"/><path d="m35.038 84.748c.052.001.105-.019.098-.079-.01-.084-.065-.127-.18-.111-.04.003-.1.026-.09.102.013.1.102.085.172.088z" fill="#e2a671"/><path d="m32.108 79.867c.006.136-.164.296-.292.28-.097-.014-.157-.07-.154-.174a.284.284 0 0 1 .289-.276c.106.005.154.075.157.17zm3.05-.173c.128-.01.208.082.223.21.014.12-.107.237-.248.24-.099-.01-.196-.05-.185-.177.01-.128.06-.26.21-.273zm-3.48-.285c-.265.006-.273.023-.259.296.034.658.095 1.313.091 1.972 0 .048.002.102.08.118.057-.164.124-.327.173-.495.29-1.02 1.177-1.629 2.208-1.426.607.119 1.226.3 1.635.97-.033-.435-.013-.774-.053-1.117-.027-.219-.11-.263-.313-.264-.96-.004-1.92-.026-2.88-.042-.228-.004-.456-.017-.682-.012zm.152 4.338c-.124.003-.188-.074-.176-.195.013-.148.106-.229.252-.229.106 0 .157.07.159.176-.013.143-.083.241-.235.248zm1.638.183c-.898-.217-1.62-.62-1.902-1.634-.046.531.002 1.005.037 1.478.008.101.043.165.154.176.112.014.224.047.336.054 1.049.067 2.098.059 3.147.09a.523.523 0 0 0 .254-.071c-.149.04-.256-.012-.26-.181-.007-.323.297-.177.425-.24l.016-.794c-.572.798-1.18 1.37-2.207 1.122z" fill="#f6c590"/><path d="m35.304 82.563c.092.01.117.08.116.163-.001.023-.008.045-.012.068h.006l-.007.006.001-.006c-.023.003-.046.01-.068.007-.114-.015-.145-.092-.126-.188.005-.023.06-.054.09-.05zm-.404-1.483c-.016-.005-.037-.047-.03-.06.073-.16.2-.153.343-.117-.049.181-.157.229-.313.177zm-.26.838c-.011.092-.092.108-.176.088-.26-.046-.513-.108-.764.065-.106.073-.278-.032-.282-.162-.009-.39-.23-.712-.33-1.072-.034-.119-.187-.291.009-.347.13-.038.122.183.168.292.034.08.06.166.08.253.103.475.43.671.883.716.089.008.177.02.264.036.075.013.162.036.149.13zm-.096 1.472c-.003.036-.03.072-.073.064-.085-.015-.117-.08-.117-.158 0-.036.027-.065.079-.06.076.017.117.072.11.154zm-.793.209c-.143.008-.082-.12-.115-.165-.001-.1.002-.195.103-.18.105.017.095.132.11.214.011.068-.025.126-.098.13zm-.81-.412c-.034.078-.078.154-.178.147-.059-.021-.088-.064-.073-.115.025-.084.065-.166.172-.159.07.004.112.055.08.127zm-.192-2.697c.094.025.148.084.15.184.001.054-.017.11-.073.112-.126.004-.164-.093-.172-.196-.004-.051.046-.083.095-.1zm-.338 2.244c-.055.082-.112.17-.23.152-.037-.005-.058-.053-.044-.087.055-.122.137-.194.281-.154-.003.043.005.072-.007.089zm-.266-1.528c.005-.057.045-.09.102-.091.076 0 .116.053.124.119.008.07-.056.07-.102.08-.071-.004-.13-.024-.124-.108zm1.404-.86c.014-.075 0-.183.106-.166.12.02.08.137.081.218 0 .07.002.174-.105.158-.129-.019-.072-.136-.082-.21zm.694.171c.023-.097.048-.198.172-.208.066.02.077.072.064.12-.026.095-.046.208-.176.204-.059 0-.072-.064-.06-.116zm1.246 1.304c.045.004.087.06.162-.022-.03-.446-.245-.837-.51-1.209a.308.308 0 0 0 -.118-.095c-.524-.241-1.013-.522-1.652-.425-.696.106-1.126.472-1.39 1.073-.102.235-.185.49-.215.753a.023.023 0 0 1 .004-.005l.001.002a.45.45 0 0 1 .381-.071c.055.013.088.052.085.104a.108.108 0 0 1 -.087.105c-.155.034-.295.025-.379-.138l-.005.005a.071.071 0 0 0 -.002.011l.005-.007c-.066.415.047.779.327 1.086.325.356.742.589 1.191.716.268.075.566.19.855.1.547-.17 1.018-.448 1.27-.999l-.006.006c.125-.171.124-.382.177-.575.034-.125-.002-.186-.14-.202-.076-.008-.206-.022-.178-.147.028-.119.14-.076.224-.066z" fill="#feefce"/><path d="m37.44 99.96c-.156-.018-.235.067-.24.255-.01.25.012.288.176.301.194.016.252-.035.245-.236-.004-.133.02-.296-.181-.32zm-1.32.068c-.08-.04-.188-.054-.25-.002-.14.116-.062.274-.038.417.015.08.046.141.141.138.093-.004.175-.027.194-.134.009-.048.006-.099.01-.184-.021-.054.061-.173-.057-.235zm-3.206.066c-.144.01-.287.018-.238.233.025.109.014.215-.12.277l-.081-.349c-.016-.067-.054-.118-.126-.117-.084.001-.087.076-.1.134-.028.115.043.248-.069.373-.121-.086-.1-.182-.119-.266-.027-.121-.037-.285-.216-.241-.185.047-.043.187-.037.28.008.116-.01.283.176.28.362-.007.727.048 1.093-.03 0-.122.005-.234.001-.345-.005-.111.017-.245-.164-.229zm1.924.215c-.019-.095.058-.262-.123-.247-.166.013-.152.168-.146.294.002.036.017.072.025.108.022.097.07.163.18.138.109-.025.078-.109.072-.18-.002-.037 0-.076-.008-.113zm-.605.229c.002.057.04.088.1.085.063-.004.09-.046.088-.1a1.328 1.328 0 0 0 -.1-.477c-.14.191-.093.344-.088.492zm-3.952.104c.052-.157.103-.319-.043-.469-.025.157-.09.31.043.469zm.364-.487c-.187.004-.116.211-.121.336-.005.104.023.214.157.2.122-.014.09-.125.098-.222-.048-.099.054-.317-.134-.314z" fill="#f6c590"/><path d="m34.629 84.652c.008-.04-.005-.075-.046-.087-.064-.016-.13-.016-.165.05-.03.058.002.1.06.113.067.014.126 0 .15-.076z" fill="#e2a671"/><path d="m37.396 99.808c.245 0 .201-.168.2-.32-.016-1.738-.03-3.476-.047-5.214-.003-.267-.024-.533-.031-.8-.003-.11-.03-.202-.148-.235-.162-.044-.359.058-.388.198-.048.224.012.304.255.345.038.007.076.006.113.011.058.011.088.053.084.108-.004.054-.046.088-.096.106-.097.036-.197-.065-.312.018-.08.588-.049 1.197-.05 1.801-.002.76.028 1.522.066 2.282.024.507.09 1.01.13 1.516.011.154.09.184.224.184zm-1.219-5.285c-.005-.697-.025-.518-.586-.576-.193-.02-.232.077-.253.24-.044.34-.03.683-.033 1.026-.016 1.358.042 2.717-.04 4.074-.03.492.007.518.485.522l.076.003c.313.001.32.001.34-.307.031-.494.051-.989.076-1.462.005-.631.082-1.24.015-1.847a16.519 16.519 0 0 1 -.08-1.673zm-2.593 2.117c-.012-.747-.008-1.494-.065-2.24-.044-.56-.055-.45-.549-.479-.049-.003-.099.02-.15.021-.138.006-.185.066-.188.215-.012.608-.047 1.215-.014 1.825.026.468.028.938.035 1.408.01.747.01 1.495.022 2.242.005.28.025.29.306.288.14-.003.279-.002.418.006.127.007.188-.054.203-.172.013-.1.036-.203.024-.303-.044-.367-.005-.734-.004-1.225.083-.448-.03-1.016-.038-1.586zm1.298-2.203c-.021-.574.025-.5-.574-.525-.272-.01-.293.028-.306.308-.023.544-.05 1.089-.075 1.633.091.119.068.262.071.396.029 1.05.05 2.102.078 3.151.013.527.063.562.58.463.012-.003.024-.007.037-.007.168-.002.215-.105.21-.251-.026-.697.034-1.393.039-2.089a70.747 70.747 0 0 0 -.06-3.08zm-5.326-.897c.015.138.11.146.212.155.12.011.148-.064.154-.16.01-.123.028-.246-.017-.388-.42.032-.391.02-.35.393zm.085 6.431c.299.016.329-.002.346-.296.003-.064.007-.128.003-.19a28.773 28.773 0 0 1 -.056-2.205c.01-.963-.005-1.929-.008-2.893 0-.115.005-.229.01-.343.006-.144-.087-.158-.2-.165-.117-.005-.153.05-.153.16 0 .126-.014.253-.018.38-.043 1.46-.122 2.917-.149 4.376 0 .318.005.634-.003.952-.005.17.075.215.228.224zm2.48-.365c.014-.531.03-1.061.008-1.595-.053-1.28-.06-2.56-.086-3.84-.001-.063.01-.125.145-.157 0 .69-.024 1.36.006 2.03.053 1.166.053 2.332.097 3.496.006.128-.079.361.057.364.231.007.146-.247.16-.39.062-.71.008-1.42.02-2.13.013-.798-.072-1.595-.047-2.395.009-.277-.05-.556-.067-.835-.008-.156-.067-.229-.231-.215-.215.016-.43.017-.644.028-.337.017-.35.02-.327.328.047.596 0 1.19.023 1.787.052 1.202.049 2.405.055 3.61.001.199.065.28.257.273.076-.002.152.006.227-.003.326-.027.34-.028.347-.356zm-1.341-4.23c-.023-.379.004-.761-.015-1.141-.013-.27-.062-.295-.371-.3-.244-.007-.288.013-.306.273-.026.367-.026.735-.023 1.102.004.851.01 1.7.029 2.551.014.634.048 1.268.075 1.901.003.091.015.174.124.21.294.095.52-.064.52-.373l-.005-1.636c-.016-.862.021-1.724-.029-2.587z" fill="#f6c590"/><path d="m37.745 79.174c-.013-.157.055-.31-.096-.415-.012-.008-.056.008-.061.023-.05.136-.04.264.067.37.007.009.023.007.09.022zm-1.127-.457c-.084.193-.064.326.071.484.09-.19.069-.325-.07-.484zm-.338.422c.017.01.058.01.07-.001.081-.075.034-.162.012-.242-.008-.034-.037-.062-.055-.09-.049.019-.054.059-.05.092.008.08-.075.172.023.24zm-.808.074c.009-.112.04-.23-.076-.358-.046.153 0 .257.076.358zm-1.987.022c.114.01.092-.096.091-.163-.001-.11-.013-.218-.021-.327a2.284 2.284 0 0 0 -.082-.009c-.04.102-.084.202-.083.318.002.075.005.172.095.18zm-.869-.02c.074-.171.004-.3-.03-.43-.026.13-.123.27.03.43zm1.996.055c.08-.298.08-.298-.075-.424-.064.132.014.24.075.425zm-4.429-.59c-.015.17-.04.3.07.411.028-.132.088-.272-.07-.41zm1.305.032c-.017.162-.078.324.018.489.054-.162.068-.325-.018-.49zm.324.078c-.031.114-.074.23.04.33z" fill="#e2a671"/><path d="m37.479 86.317c.114-.451.067-.894.005-1.34-.095.448-.242.893-.005 1.34zm-.539-.97a1.87 1.87 0 0 0 -.037-.299c-.035-.175-.177-.144-.3-.147-.152-.003-.148.103-.144.208l.045 1.133c.007.13.05.222.205.204.136-.016.239-.054.228-.227-.01-.164.004-.328.007-.493h-.01c.003-.126.011-.253.006-.379zm-7.1 1.156c.116-.009.154-.061.142-.17-.05-.425-.108-.85-.145-1.275-.013-.15-.07-.195-.207-.198-.244-.006-.28.038-.272.346l.075.96c.024.293.11.36.407.337zm.99.087c.252.006.291-.03.285-.276-.01-.34-.042-.681-.038-1.021.004-.355-.106-.334-.359-.338-.242-.002-.403.059-.371.45 0 .313.05.597.126.88.074.28.088.297.357.305zm4.605-1.896c.045.006.065-.022.07-.063-.003-.054-.024-.1-.078-.112-.057-.014-.096.017-.086.077.009.049.037.092.094.098z" fill="#f6c590"/><path d="m35.083 90.948c-.032-.631-.003-1.265-.04-1.897 0-.645.02-1.289.003-1.934a.1.1 0 0 0 -.013-.057c-.028-.04-.111-.035-.133.006-.027.05.005.187.007.243.007.175.013.35.024.524.015.238-.001.48-.004.72-.006.504 0 1.01.003 1.515.002.335-.003.668-.003 1.001-.01.57.02 1.138.037 1.707.002.044.04.086.095.196.024-.733.058-1.376.024-2.024zm-1.343-3.516c-.011-.094-.01-.19-.013-.284-.005-.097-.18-.095-.234-.046-.046.04-.025.13-.023.185.007.221.024.437.027.659.004.25.013.5.024.752.023.5.05 1.001.048 1.503v.003a17.7 17.7 0 0 0 .067 1.516c.034.413-.02.835.096 1.308a.458.458 0 0 0 .106-.316c-.004-.405-.01-.813-.019-1.218-.02-.99-.043-1.98-.06-2.968-.006-.262-.007-.525-.01-.786 0-.106.005-.201-.009-.308zm3.164-.441-.049.008c-.063-.004-.144-.016-.203.002.015.118-.004.246-.005.366a15.11 15.11 0 0 1 -.022.737c-.014.22.008.434.012.654.008.507.016 1.012.027 1.517.007.283.015.567.025.85.02.52-.018 1.039-.005 1.558.003.106.065.272-.102.267-.127-.005-.069-.164-.067-.257.015-.686.067-1.372.043-2.056a69.61 69.61 0 0 1 -.05-2.993.026.026 0 0 1 -.01-.02 9.31 9.31 0 0 0 -.028-.624l-.278.022c.062.904-.009 1.81.016 2.716.025.91.029 1.825-.026 2.738-.006.128.004.254.042.376.053.165.254.243.474.201.188-.035.14-.166.138-.293-.008-.558-.019-1.115-.008-1.673a265.747 265.747 0 0 1 .07-2.842c.01-.294.018-.589.016-.883 0-.039-.047-.366-.01-.372zm-5.953 5.069c-.004.29-.02.591.078.947.096-.193.08-.333.082-.463.006-.33.002-.659-.008-.987-.031-1.103-.067-2.206-.1-3.308l-.018-.617c-.006-.183.013-.38-.033-.557-.176-.04-.14.128-.136.252l.007.137c.01.135.024.272.02.406-.004.17-.002.34.004.51.011.34.034.678.038 1.02.008.886.08 1.77.066 2.66zm1.376.902c.161 0 .124-.246.117-.385-.065-1.367-.12-2.734-.078-4.102.017-.328.035-.659.049-.988.002-.033 0-.068-.001-.102h.002c-.008-.084-.028-.168-.02-.254-.084-.002-.169-.003-.253-.006.027.078.03.158.01.236l.001.01.013.001v.05c.012.81.01 1.621.045 2.431.039.913.012 1.824.004 2.735-.001.141-.084.374.111.374zm1.553-8.422c-.057.01-.14-.018-.15.068-.013.107.078.11.15.121.06.009.123.015.185.016.064.002.135-.008.132-.09-.004-.069-.061-.104-.131-.108l-.112-.004v-.003c-.025 0-.05-.003-.074 0z" fill="#e2a671"/><path d="m35.262 84.882c-.541-.012-1.08.064-1.625-.007-.588-.075-1.184.038-1.777.038-.087 0-.218.003-.19.181.047.002.095.003.143.003.895-.008 1.788-.018 2.683-.025.278-.002.556.012.833.001.132-.004.282.017.415-.153-.185-.06-.334-.035-.482-.038z" fill="#f6c590"/><path d="m36.684 99.987c-.063 0-.126 0-.188.005a.115.115 0 0 0 -.108.088c-.038.142-.085.285.07.427.021-.111.038-.221.063-.331.007-.034.033-.07.08-.058.037.01.057.035.068.076.03.11-.066.216-.01.325.367.005.367.005.368-.251.002-.272-.006-.28-.343-.28zm-.311-.251c.042-1.142.143-2.285.062-3.43-.027 1.144-.038 2.287-.062 3.43zm-.786.305c-.083-.085-.237-.016-.24.113-.004.147.02.295.032.441a.783.783 0 0 0 .07-.012c.078-.016.201.019.194-.113-.008-.143.065-.305-.056-.429zm-.486.018c-.16.427-.104.536.27.537-.255-.084-.111-.386-.27-.537zm1.295-5.976c-.048.304-.1.601-.072.906.028.3-.01.607.093.99.067-.694-.02-1.296-.02-1.896zm-1.346.016c-.003 1.807-.004 3.615-.005 5.422.18-1.81.132-3.634.109-5.491-.068.044-.103.056-.103.069zm1.595 5.623c.02.112.119.12.21.114.085-.006.142-.05.141-.145 0-.063.005-.127-.002-.19-.076-.782-.104-1.566-.145-2.35-.048-.887-.024-1.773-.022-2.66.003-.075.009-.152.01-.227.004-.11.045-.27-.108-.277-.167-.007-.119.166-.126.267-.05.735-.022 1.47.004 2.206.013.393.065.79.028 1.177-.052.546-.015 1.089-.039 1.632-.007.15.022.303.05.453zm-2.793-4.227c-.007-.393-.006-.787-.017-1.18-.002-.124.033-.27-.104-.373-.126.125-.07.257-.07.376 0 .19.028.38.027.569-.007 1.268.118 2.533.075 3.801-.012.343-.018.685-.024 1.027-.001.061-.007.146.07.16.11.017.112-.083.112-.154 0-.418-.004-.836-.01-1.255-.011-.71-.03-1.42-.036-2.128-.001-.164.03-.326.047-.49-.1-.1-.068-.232-.07-.353zm2.477-2.205c-.116.169-.014.3.08.432.004.008.022.006.084.018a.632.632 0 0 0 -.067-.47c-.006-.01-.082 0-.097.02zm-1.244-.012c-.047.207-.094.353.099.51.01-.194.026-.334-.1-.51zm1.643 0c-.123.003-.046.166-.062.258-.009.048 0 .1.008.15.007.04.04.063.082.054.021-.005.051-.024.055-.041.013-.049.014-.101.019-.15-.022-.1.06-.274-.102-.271zm-6.964 6.871c-.136.002-.327-.067-.357.168-.033.251.034.322.32.347.146.034.263.02.274-.186.014-.248-.03-.333-.238-.329zm.424-6.443c.023-.167.086-.341-.053-.562-.037.235-.054.401.052.562zm1.353 6.498c-.019-.041-.058-.043-.095-.033-.039.011-.076.038-.07.077.011.074.033.147.058.217.02.06.053.129-.031.155-.074.024-.114-.045-.137-.102-.043-.105-.073-.214-.112-.321-.023-.059-.08-.055-.129-.056-.043 0-.066.029-.078.066-.087.27.073.503.349.511.384.013.42-.039.281-.407-.014-.035-.02-.072-.036-.107zm2.401-.114c-.12 0-.12.105-.118.196 0 .025.005.05.008.075l.012.074c.006.053 0 .113-.056.123-.074.013-.11-.048-.118-.114-.01-.063-.005-.126-.008-.189-.006-.086-.05-.141-.14-.145-.106-.001-.23-.052-.267.12-.047.217.015.412.158.436.099.017.202.019.301.011.33-.022.347-.044.33-.387-.003-.083.032-.2-.102-.2zm-2.987-6.85c-.113.18-.026.344.027.578.129-.252.008-.41-.027-.578zm.088 6.636c.082-.022.082-.094.082-.151-.012-1.901-.001-3.802-.128-5.703-.123.526-.045 5.487.046 5.853zm1.389-6.652c-.1.236-.1.236.057.45zm1.35-.016c-.104.015-.1.102-.082.177.03.119.073.236.11.355l.067.001c.017-.122.039-.243.048-.364.01-.1-.02-.185-.143-.17z" fill="#e2a671"/><path d="m35.671 83.976c-.062-.06-.09.032-.14.036.042.028.08.085.137.027.012-.011.014-.054.003-.063zm.234 9.724c.05.085.125.075.188.025.076-.06.023-.444-.066-.466-.159-.038-.144.087-.149.18.004.09-.02.18.027.26zm-1.851-.038c.003.087.065.098.13.094.092-.005.14-.049.096-.147-.057-.124-.032-.266-.106-.4-.125.137-.124.294-.12.453zm1.299-.274c-.007.21.06.372.157.383.159.02.19-.07.189-.206-.002-.258-.046-.341-.194-.338-.112.004-.16.059-.152.161zm-2.083-.225c-.117.007-.176.065-.183.189-.02.312.073.39.51.38-.027-.159-.051-.293-.07-.428-.025-.163-.143-.146-.256-.141zm-2.635.587c.132-.007.114-.106.103-.192-.013-.1-.032-.197-.048-.295-.013-.078-.07-.093-.136-.097-.093-.01-.141.04-.147.126-.006.099 0 .2-.001.298-.004.169.114.167.23.16zm2.141-.548c-.148-.01-.164.095-.157.2.01.14-.038.323.177.358.112.02.16-.048.153-.154.017-.245-.05-.397-.173-.404zm1.874.533c.154.016.244-.028.223-.177-.009-.163.058-.345-.19-.343-.123 0-.261-.03-.263.167-.001.2.09.338.23.353zm-2.563.027c.036-.005.07-.018.138-.037-.025-.139-.041-.25-.065-.36-.039-.19-.2-.167-.33-.173-.154-.006-.128.125-.137.22-.034.37.011.41.394.35zm-.569-.479c-.019-.113-.136-.162-.227-.1-.08.054-.124.135-.091.229.038.113-.032.266.107.34.066.036.155.029.192-.056.023-.056.021-.124.029-.176-.002-.086.004-.164-.01-.237zm6.065-3.476c-.009-.778.005-1.559-.042-2.334a12.21 12.21 0 0 0 -.047-.564l-.39.056c.001.064-.003.127-.004.19-.005.25-.02.498-.027.747-.027 1-.039 2.002-.078 3.004-.024.622.017 1.241.011 1.863-.002.278.01.278.271.262.258-.017.291-.037.275-.333-.033-.584.016-1.166.044-1.778.016-.369-.009-.745-.013-1.113zm-2.569-3.172c-.606.012-1.214 0-1.817.049-.73.06-1.462.036-2.19.077-.5.028-.998-.14-1.572-.057.1.051.13.076.164.08.527.062 1.052.146 1.58.178.906.055 1.81.069 2.722-.02.44-.043.903-.019 1.355-.027.62-.011 1.238-.039 1.857-.058a1.03 1.03 0 0 0 .335-.056c.053-.02.085-.057.08-.112-.006-.057-.051-.091-.103-.094-.112-.007-.23-.026-.339-.004-.69.14-1.38.03-2.072.044zm-.544 6.381c.315-.008.35-.037.338-.347a24.976 24.976 0 0 1 -.027-2.053c.045-.635-.006-1.27-.003-1.905.003-.437.017-.876-.037-1.313-.001-.001-.003-.003-.003-.005a8.72 8.72 0 0 0 -.053-.364c-.186.008-.372.018-.558.029-.053.003-.19-.015-.231.02-.05.042-.023.205-.021.262.01.303.01.603.02.907.014.43.049.861.046 1.292-.007 1.066.032 2.13.07 3.194.01.286.01.286.306.288.051 0 .102-.004.152-.005zm-1.957-2.492c.018.645.059 1.29.073 1.934.013.6.013.609.608.56.037-.004.075-.014.112-.017.137-.011.203-.078.198-.22-.012-.406-.014-.81-.03-1.216-.023-.593-.081-1.187-.077-1.78 0-.428-.012-.855-.027-1.282-.016-.415-.007-.834-.04-1.246-.007-.089.018-.15-.082-.144-.196.014-.413-.013-.605.02-.085.015-.083.061-.077.138.024.304-.034.616-.052.922-.053.33.023.723.001 1.116-.022.404-.013.81-.002 1.215zm3.497 2.473c.071-.772.034-1.557.059-2.34.02-.632-.022-1.266-.008-1.898.01-.452-.005-.902-.026-1.355l.004.002a2.04 2.04 0 0 1 -.034-.36c-.275-.026-.538-.063-.81-.022-.01.064-.003.129.003.193.032.376-.02.754-.018 1.13.008 1.39.08 2.782.067 4.174-.006.608.082.554.49.508.086-.009.176.027.273-.032zm-6.492-.278c.018.213.037.23.249.212.121-.01.187-.054.189-.182.001-.178.015-.357.009-.534-.043-1.155-.082-2.309-.138-3.462-.014-.28-.035-.56-.057-.84-.022-.254-.02-.526-.076-.777-.011-.048-.018-.137-.054-.164-.057-.041-.274-.084-.272.029.005.22.026.44.034.656v.016c.009.25.003.502.003.752 0 .502-.003 1.004.014 1.505.01.296.024.591.05.887.056.633-.006 1.268.049 1.902zm.649.209c.16.09.344.076.516.047.13-.023.11-.159.113-.253.01-.38.01-.76.016-1.142.011-.876-.087-1.747-.08-2.623.003-.312-.013-.624-.033-.936-.018-.29-.007-.601-.073-.885-.022-.09-.091-.076-.166-.086-.084-.01-.167-.032-.252-.04-.066-.006-.25-.045-.29.028a.16.16 0 0 0 -.015.073c-.005.12-.005.24-.003.362.01.358.05.72.07 1.074.029.49.056.98.076 1.469.036.9.051 1.8.076 2.7.002.073-.026.172.045.213zm1.775.092c.07-.005.096-.074.102-.141.013-.139.037-.278.037-.417 0-.391-.007-.783-.01-1.044.076-1.348-.072-2.56-.05-3.778.003-.119.003-.21-.005-.278-.005-.055-.013-.112-.017-.17-.002-.018-.009-.046-.009-.073-.22-.008-.44-.02-.665-.031-.04-.003-.114-.017-.146.018-.008.01-.01.026-.012.039-.018.214-.011.43-.02.643a7.75 7.75 0 0 0 -.007.694c.044.874.055 1.748.09 2.62.023.544-.01 1.088.035 1.63.009.098-.017.22.112.255.185.05.376.05.565.033z" fill="#f6c590"/><path d="m33.49 84.612c-.008-.102-.107-.073-.186-.085-.055.013-.16-.019-.148.094.01.094.101.093.175.094.077.002.166-.003.159-.103zm-.59-.012c-.017-.053-.102-.072-.127-.043-.135.15-.253.072-.394.008-.083-.036-.198-.009-.297 0-.054.005-.085.053-.092.106-.009.067.045.09.095.09.112-.001.224-.014.337-.022v-.01c.125-.002.25-.002.375-.011.068-.005.129-.04.103-.119z" fill="#e2a671"/><path d="m35.12 77.667c-.006-.055-.031-.101-.09-.094a.134.134 0 0 0 -.088.064c-.106.221-.24.43-.205.7.028.209.17.316.354.228.155-.073.074-.222.096-.335.048-.197-.045-.375-.067-.563zm-2.833-.163c-.158-.013-.223.119-.25.24-.042.198-.022.397.01.6.026.163.074.204.228.2.166-.004.177-.105.181-.225l.005-.266h-.006c.002-.088.002-.176.006-.265.005-.135-.005-.27-.174-.284zm1.126.709a1.301 1.301 0 0 0 -.047-.53c-.047-.17-.14-.19-.273-.079-.223.186-.224.424-.18.685.04.245.132.326.36.26.21-.062.115-.247.14-.336zm-1.646.31c.023 0 .044-.02.087-.04-.01-.19-.02-.392-.034-.592-.005-.061-.004-.128-.07-.177-.127.16-.088.33-.052.505.013.061.014.143-.062.156-.107.019-.114-.076-.117-.15-.004-.179 0-.356-.005-.534-.002-.076-.01-.17-.107-.174-.11-.007-.146.08-.148.179-.002.101-.005.203-.006.305-.007.536-.007.536.514.522zm2.357-.979c-.085-.011-.133.06-.172.125-.156.266-.054.542-.028.813.006.072.088.08.152.077.078-.002.16-.01.175-.105.02-.124.025-.25.036-.375l-.026-.002c.002-.113.008-.227.006-.34 0-.096-.042-.178-.143-.193zm-1.253 8.716c.044.242.055.255.307.24.461-.027.47-.038.485-.495.001-.037.006-.075.002-.113-.013-.16-.187-.325-.366-.37-.205-.053-.265.097-.329.23-.077.16-.133.324-.099.508zm2.751.19c.08-.005.16-.017.164-.117.01-.283.094-.59-.254-.804a.937.937 0 0 0 -.081.818c.032.092.087.11.17.104zm-3.81-.92c-.044.257-.133.513-.084.784.033.18.112.28.287.234.405-.001.41-.006.369-.376-.009-.076-.022-.153-.02-.229.003-.182-.122-.305-.217-.431-.1-.138-.313-.12-.335.017zm2.573-.102c-.086.274-.162.475-.208.68-.048.213.07.34.294.34.063 0 .126-.006.188 0 .193.019.214-.083.23-.251.036-.379-.269-.501-.504-.769z" fill="#91653a"/><path d="m37.713 85.491c0 .239-.096.476-.02.714.118-.367.045-.746.079-1.132-.022.149-.059.284-.06.418zm-.549-.555c-.013.422-.124.845.025 1.256-.065-.42.057-.842-.025-1.256zm-7.964-.09c-.137-.037-.229-.026-.21.152.04.406.03.823.239 1.2.046-.455-.127-.9-.03-1.352zm7.071.188c-.003-.112-.056-.16-.166-.147-.079.011-.182-.027-.183.121a7.28 7.28 0 0 0 .106 1.32c.014.081.038.145.14.134.107-.011.155-.073.151-.178l-.015-.303h.006c-.013-.316-.027-.631-.039-.947zm-5.98 1.426-.16-1.467c-.127.506-.092.997.16 1.466zm1.144.108c.12.003.143-.09.138-.183-.026-.441-.108-.875-.103-1.319 0-.053-.027-.095-.089-.1-.08-.005-.112.048-.115.116-.007.177-.009.355-.011.507.022.288.01.554.063.816.014.076.018.16.117.163zm1.155-.321c.043.041.068.04.07.011.019-.302.05-.606-.042-.903-.1.302-.087.605-.028.892zm1.002-.882c.013-.029.006-.051-.024-.056-.023-.004-.056-.006-.069.006-.041.043.01.056.034.067.014.006.039-.01.059-.017zm-1.235.018c-.013-.017-.025-.043-.041-.047-.03-.008-.041.014-.021.04.012.015.033.024.05.034zm2.883 1.083c-.037-.41-.068-.769-.099-1.128-.18.324-.118.824.099 1.129zm.172-1.18c-.012.016-.025.033-.034.052-.002.002.012.014.02.022.012-.017.026-.034.038-.053 0-.002-.016-.014-.024-.021zm-2.441.042c-.008-.028-.04-.034-.061-.013a.113.113 0 0 0 -.027.066c-.003.03.017.042-.002.047.092-.025.103-.062.09-.1zm1.001 1.197c.015-.448.137-.826-.052-1.245-.208.211-.07.419-.082.607-.011.193-.083.413.134.638zm.835-.995c.037-.03.043-.147-.025-.202-.046-.037-.106-.072-.167-.02-.018.06.013.114.055.129.062.02.048.17.137.094zm2.267-5.97c-.017.252-.056.505-.045.755.023.532.06 1.062.113 1.59.085.857.108 1.716.155 2.574.003.05.001.101.007.152.005.043.043.064.08.064.033-.001.078-.014.099-.039.052-.06.057-.139.056-.215-.01-.645-.018-1.29-.032-1.936-.017-.72-.101-1.438-.078-2.16.005-.253.011-.506.015-.76.002-.1-.033-.172-.151-.168-.104.001-.21 0-.22.144zm-.811 1.236c.046 1.164.091 2.329.138 3.493.003.102.003.205.026.303.024.106.12.118.213.11.087-.007.14-.05.14-.144 0-.088.005-.177 0-.265-.038-.846-.09-1.692-.114-2.54-.018-.721-.107-1.438-.132-2.159-.004-.114-.005-.197-.154-.19-.125.004-.136.08-.138.176l-.024 1.215zm-5.989-1.402c-.038.123.084.244.02.364-.115.217-.074.444-.065.67.014.354.034.708.054 1.062.056.959.112 1.92.17 2.879.005.088.01.179.037.262.066.211.25.119.388.133.145.015.155-.1.152-.205-.017-.695-.02-1.392-.061-2.086-.057-.948-.15-1.891-.214-2.838-.012-.19-.065-.282-.258-.278-.075.001-.152-.014-.223.037zm-.628 5.318c.175 0 .209-.098.2-.248a9.018 9.018 0 0 1 0-1.161c-.035-.508-.026-1.04-.038-1.571-.016-.722-.13-1.436-.14-2.158 0-.113.002-.234-.17-.235-.175 0-.16.108-.163.228-.012.607-.032 1.211.01 1.82.073 1.02.08 2.047.108 3.071.004.143.013.254.193.254zm5.816-12.312c-.256-.236-.84-.11-1.155-.093-.509.025-.995-.027-1.502-.053-.38-.02-.762-.004-1.142.012a9.58 9.58 0 0 1 -.595-.08c-.07-.013-.156.004-.183.08a.22.22 0 0 0 -.008.035.119.119 0 0 0 -.098.083c-.03.1-.025.13.022.22.05.096.26.083.273-.032.418.167 1.35.082 1.539.082l1.58-.002c.366-.002.896.102 1.233-.057.077-.037.103-.135.036-.195zm2.205 6.057c-.021-.073-.013-.203-.02-.266l-.025-.204a21.036 21.036 0 0 0 -.085-.59c-.024-.158-.309-.113-.283.056.033.212.064.422.09.633.018.138.004.344.062.48l.006.012.012.026c.053.088.19.085.25.008l.007-.007a.114.114 0 0 0 -.014-.148zm-5.059 20.735c.001-.274-.007-.547-.022-.82a.1.1 0 0 0 .019-.07c-.06-.738-.018-1.477-.025-2.216-.006-.75-.04-1.5-.094-2.248-.011-.155-.275-.171-.29-.031-.054.011-.096.047-.093.113a71.49 71.49 0 0 1 .085 3.22.097.097 0 0 0 -.033.086c.035.457.057.91.052 1.368-.005.428-.065.918.055 1.334.034.116.195.121.264.038.15-.174.08-.563.082-.774zm-.058 1.125v-.002l-.003-.033a.104.104 0 0 0 -.075-.089.187.187 0 0 0 -.066-.069c-.08-.053-.22-.001-.223.1a3.6 3.6 0 0 0 .022.509c.013.111.132.152.214.115.083.017.177-.02.172-.114a6 6 0 0 0 -.04-.417z" fill="#e2a671"/><path d="m36.978 87.158c0-.005 0-.012-.002-.019.027-.06.009-.135-.086-.16-.48-.125-.335.823-.338 1.072-.01.74.019 1.48.078 2.218 0 .01.002.02.005.03l-.057 2.657c-.005.164.287.173.29.009l.065-2.988a.114.114 0 0 0 -.042-.092 20.652 20.652 0 0 1 -.023-.434.115.115 0 0 0 .02-.056c.058-.745.088-1.49.09-2.237z" fill="#f6c590"/><path d="m29.602 86.965c-.002-.164-.293-.175-.291-.01.023 1.993.085 3.987.187 5.977.008.163.299.174.29.01-.1-1.99-.163-3.983-.186-5.977zm8.002.013c-.002-.165-.293-.174-.29-.01.026 2.034.072 4.064-.067 6.096-.011.163.28.174.29.01.14-2.031.094-4.063.067-6.096zm-7.504 12.435c-.143-.718-.21-1.454-.268-2.19l-.011-.39-.042-1.518c-.013-.48-.07-.982.129-1.432.068-.155-.213-.222-.279-.076-.182.412-.158.848-.146 1.29l.02.752a.12.12 0 0 0 -.084.107 25.328 25.328 0 0 0 -.012 3.432.112.112 0 0 0 -.023.04.7.7 0 0 0 .054.56.12.12 0 0 0 .063.059.186.186 0 0 0 .182.02c.053.005.11-.012.14-.052a.383.383 0 0 0 .066-.007c.297-.06.256-.371.212-.595zm7.592.593v-.038c0-.08-.02-.202-.01-.295.029-.024.043-.061.025-.109l-.002-.008a.148.148 0 0 0 -.114-.093c.03-1.086.044-2.172.04-3.26-.002-.568-.007-1.138-.011-1.708-.002-.33.036-.715-.372-.763-.175-.021-.188.205-.033.245a.2.2 0 0 0 0 .025c.09.985-.006 1.967-.058 2.952-.024.47-.047.94-.066 1.411-.02.457-.091.947.04 1.392.023.078.107.103.178.09a.129.129 0 0 0 .062.05.25.25 0 0 0 -.178.092.483.483 0 0 0 -.075.252c-.01.087-.022.193.05.259.068.063.187.068.273.086l.023.004c.086.035.207.002.205-.105v-.087a.113.113 0 0 0 .023-.071v-.259a.13.13 0 0 0 0-.062zm-5.81-15.299a.624.624 0 0 1 -.012-.112.088.088 0 0 0 .014-.052l-.006-.078c-.01-.152-.23-.172-.28-.044a.123.123 0 0 0 -.018.055c0 .013 0 .025.003.037a.982.982 0 0 0 .016.251c.014.074.11.107.176.095.073-.015.12-.077.107-.151zm3.611-.296a.147.147 0 0 0 -.09-.03c-.066 0-.15.042-.15.12l.004.19c0 .07.056.117.121.128a.15.15 0 0 0 .163-.084.613.613 0 0 0 .052-.2c.006-.06-.046-.108-.1-.124zm.874-6.347.002-.016.003-.657c.001-.169.005-.32-.071-.473-.02-.041-.08-.069-.124-.067-.074.004-.142.031-.174.088a.108.108 0 0 0 -.04.09l-.005.947c0 .17-.066.478.075.615.087.084.235.096.32.001.114-.125.044-.365.014-.528zm-5.664-1.069c-.045-.07-.158-.082-.223-.036-.093-.041-.198-.002-.217.103a2.444 2.444 0 0 0 -.017.583.104.104 0 0 0 -.042.065l-.006.032v.001c-.047.241-.05.474-.008.717.017.103.143.118.222.072a.18.18 0 0 0 .147-.009c.055-.012.104-.048.109-.113l.069-.843c.016-.191.073-.401-.034-.572z" fill="#e2a671"/><g fill="#000206"><path d="m31.662 79.973c-.003.104.057.16.154.173.128.017.298-.143.292-.28-.003-.094-.05-.164-.157-.169-.148-.01-.285.121-.29.276zm.244 3.35c-.146 0-.239.081-.252.229-.012.121.052.198.176.195.152-.007.222-.105.235-.248-.002-.106-.053-.176-.16-.176z"/><path d="m29.767 78.618c.163-.016.225.087.224.319 0 .142-.058.205-.206.2-.237-.006-.291-.058-.284-.299-.032-.209.135-.207.266-.22zm.028-1.756c.251-.007.251-.007.486.112-.223.047-.217.046-.209.251.012.291.015.583.022.873.003.07-.03.153.092.206.23-.296-.071-.65.116-1.028.006.382.009.68.017.98.003.135-.038.219-.19.219-.134-.002-.272-.01-.278-.18-.017-.478-.144-.952-.056-1.433zm.12-.308c.012-.145.117-.192.294-.2a7.072 7.072 0 0 1 1.285.048c.554.072 1.114.038 1.671.053.987.025 1.975.046 2.961.069.05.001.105-.009.15.008.077.025.134.088.123.17-.011.074-.092.075-.152.084a.523.523 0 0 1 -.114.002c-.734-.035-1.47.009-2.005.014-.87-.023-1.541.01-2.212.012-.58.003-1.162-.06-1.742-.11-.09-.009-.271.006-.259-.15zm.66-.968c.126-.262.29-.505.375-.788.046-.155.145-.205.31-.208 1.15-.023 2.297.048 3.445.05.56 0 .838.2.989.706.096.325.344.587.44.998-1.976-.116-3.923.04-5.883-.229.068-.221.239-.348.324-.53zm.477-2.736c.131.452.105.92.16 1.38.008.059.002.133-.084.14-.06.005-.093-.047-.092-.097.014-.473-.106-.947.016-1.423zm.917 1.43c-.008.099-.08.113-.16.12-.072.006-.127-.018-.134-.094-.04-.38-.08-.76.018-1.137.14.016.195.102.211.177.07.306.09.619.065.933zm.5-.382c.008.124.022.25.02.374 0 .09-.063.133-.15.133-.06 0-.135.007-.151-.074-.06-.321-.13-.642.024-.956.031-.064.058-.15.152-.14.105.01.093.104.095.174.003.162-.005.325-.008.488l.019.001zm.508.303c0-.016.003.015.002.046-.004.075-.001.158-.11.162-.082.003-.166-.015-.183-.099-.07-.358-.112-.72.036-1.07.022-.052.065-.079.12-.072.078.009.097.074.092.137-.024.274.027.545.043.896zm.252-.786c.078-.086.025-.26.212-.303.083.117.061.258.068.389.01.203.006.406.017.608.004.091-.031.25.114.228.127-.018.058-.165.057-.26a.408.408 0 0 0 -.008-.074c-.062-.32.018-.596.308-.912.08.474.032.875.025 1.273 0 .026-.04.06-.07.075a.23.23 0 0 1 -.11.014c-.222-.014-.453.027-.655-.106.08-.307-.237-.63.042-.932zm1.296-.008c-.003.29-.01.579-.011.868-.001.094-.007.177-.131.183-.114.007-.148-.05-.162-.155-.05-.388-.097-.773.173-1.134.13.06.132.15.131.238zm-3.215-.484c.008-.11.083-.151.182-.151.153.001.304.01.456.012.987.005 1.974.007 2.962.013.019 0 .037.026.119.085-.21.066-.339.154-.537.062-.158-.073-.353.03-.547-.013-.134-.029-.304.103-.436-.06-.006-.007-.024-.005-.037-.005-.168-.004-.29.213-.51.056-.122-.087-.342-.002-.516.036a.974.974 0 0 0 -.247.088c-.09.049-.156.049-.236-.023-.092-.082-.198-.186-.334-.093a.45.45 0 0 0 -.215.42c.016.202.043.404.057.606a.873.873 0 0 1 -.043.341c-.087-.454-.15-.91-.118-1.374zm3.716.805c.009.26.032.448-.027.632-.021.068-.053.111-.128.11-.07-.001-.105-.03-.129-.104-.11-.349-.063-.696-.004-1.043.015-.085.075-.168.185-.15.09.015.108.098.11.174.002.15-.005.301-.007.38zm.28-.856c-.064.511.126 1.026-.04 1.54a3.83 3.83 0 0 1 .04-1.54zm1.387 4.122c-.303.276-.215.608-.192.93-.071-.127-.035-.265-.04-.399-.005-.135.026-.276-.061-.453-.223.253-.082.506-.083.735-.001.236-.036.483.094.704-.326.04-.347.028-.397-.263a2.11 2.11 0 0 1 .002-.607c.01-.075.041-.151.036-.224-.007-.114.087-.312-.07-.323-.176-.011-.105.195-.11.306-.012.33-.006.66-.006.99 0 .077.016.161-.093.169-.086.005-.151-.04-.159-.129-.037-.444-.048-.887.057-1.325.025-.103.078-.16.184-.145.264.035.531-.034.838.034zm.077.385-.02.97c-.073-.323-.115-.647-.058-.973zm.274 7.25c-.23-1.62-.192-3.256-.335-4.882-.008-.093-.015-.198.11-.32.096 1.762.295 3.474.225 5.202zm.005-5.897c.2-.005.344.117.355.297.011.194-.135.132-.225.148-.236-.003-.256-.036-.258-.31 0-.1.038-.134.128-.135zm.356-1.208c.008.017.004.039.003.06-.009-.02-.019-.04-.024-.06-.005-.025-.003-.05-.005-.075.054.009.015.05.026.075zm.039 2.062-.015.76c-.023.721.06 1.44.078 2.16.014.646.022 1.29.032 1.936.001.077-.004.154-.056.214-.021.025-.066.038-.1.04-.036 0-.074-.022-.079-.065-.006-.05-.004-.102-.007-.151-.047-.86-.07-1.718-.155-2.575a27.964 27.964 0 0 1 -.113-1.59c-.01-.25.028-.502.045-.754.01-.144.115-.143.219-.145.118-.003.153.068.15.17zm.035 6.73c-.237-.446-.09-.891.005-1.339.062.445.109.889-.005 1.34zm.108-7.534c.006-.014.05-.031.062-.023.151.106.083.258.096.415-.067-.016-.083-.013-.09-.021-.108-.107-.118-.235-.068-.371zm.194 1.817c.002.178-.01.354-.013.532-.004.188-.004.379-.008.568-.002.177-.006.351-.01.527l-.081.008c-.001-.887-.19-1.776.073-2.702.103.182.008.345.01.501.002.19.025.378.029.566zm-.01 3.922a.484.484 0 0 1 .007-.36l-.008.36zm-.064-.864.02-1.005h.022l-.02 1.005zm-.015 2.548c-.075-.238.02-.475.021-.714 0-.134.036-.27.059-.418-.034.386.039.765-.08 1.132zm-.316 14.311c-.163-.013-.186-.051-.177-.301.006-.188.085-.273.24-.254.203.023.178.186.182.319.007.201-.051.252-.245.236zm-.334-2.408a43.886 43.886 0 0 1 -.066-2.282c.001-.605-.03-1.213.05-1.8.115-.084.215.017.312-.02.05-.017.092-.051.096-.105s-.026-.097-.084-.108c-.037-.005-.075-.004-.113-.01-.243-.042-.303-.123-.255-.346.03-.14.226-.242.389-.198.118.033.144.125.147.236.007.266.028.532.03.8.018 1.737.032 3.475.048 5.214.001.15.046.319-.2.319-.134 0-.212-.03-.224-.184-.04-.505-.105-1.01-.13-1.516zm-.015 2.16c-.001.256-.001.256-.369.251-.054-.109.041-.215.011-.325-.011-.041-.03-.066-.068-.076-.047-.012-.073.024-.08.058-.025.11-.042.22-.062.331-.156-.142-.109-.285-.071-.427a.115.115 0 0 1 .108-.088c.062-.005.125-.005.188-.005.337.002.345.009.343.281zm-.654-.532c.024-1.143.035-2.286.062-3.43.081 1.145-.019 2.288-.062 3.43zm.023-5.653c0 .6.088 1.202.02 1.897-.102-.384-.064-.692-.092-.991-.027-.305.024-.602.072-.906zm-.154 3.96c-.025.473-.045.968-.077 1.462-.02.308-.026.308-.34.307l-.075-.003c-.478-.004-.515-.03-.485-.522.082-1.357.024-2.716.04-4.074.003-.343-.01-.685.033-1.026.02-.163.06-.26.253-.24.561.058.581-.12.586.576.005.557.019 1.115.08 1.673.067.607-.01 1.216-.015 1.847zm-.065 2.221c-.004.084-.001.135-.01.183-.02.107-.1.13-.194.134-.095.003-.127-.058-.14-.138-.025-.143-.103-.301.037-.417.062-.052.17-.039.25.002.118.062.036.181.057.236zm-.534.206c.007.132-.116.097-.195.113a.783.783 0 0 1 -.07.012c-.01-.146-.035-.294-.031-.441.003-.129.157-.198.24-.113.12.124.048.286.056.429zm-.541-.411c.158.151.014.453.27.537-.375-.001-.432-.11-.27-.537zm-.175-8.99c0-.333.005-.666.003-1-.002-.506-.009-1.012-.003-1.516.003-.24.019-.482.004-.72-.01-.175-.017-.349-.024-.524-.002-.056-.034-.194-.007-.243.022-.041.105-.046.133-.006.012.017.012.038.013.057.018.645-.002 1.29-.002 1.934.036.632.007 1.266.04 1.897.033.648 0 1.29-.025 2.024-.055-.11-.093-.152-.095-.196-.016-.569-.047-1.138-.037-1.707zm-.024 8.536c.005.146-.042.25-.21.25l-.037.008c-.517.1-.567.064-.58-.463-.028-1.05-.05-2.1-.078-3.15-.004-.135.02-.278-.07-.398.025-.543.051-1.088.074-1.632.013-.28.034-.318.306-.308.598.025.553-.05.574.525a72.2 72.2 0 0 1 .06 3.08c-.005.695-.065 1.39-.04 2.088zm-.128.997c-.112.025-.158-.041-.18-.138-.01-.036-.024-.072-.026-.108-.006-.126-.02-.281.146-.294.181-.015.104.152.123.247.007.037.005.076.008.113.006.071.037.155-.071.18zm-.441.021c-.06.003-.099-.028-.1-.085-.006-.148-.052-.301.087-.492.077.184.092.33.1.477.002.054-.025.096-.087.1zm-.62.054c-.1.008-.203.006-.301-.011-.143-.024-.205-.219-.158-.436.036-.172.161-.121.268-.12.09.004.133.059.139.145.003.063-.002.126.008.189.008.066.044.127.118.114.056-.01.062-.07.055-.123-.003-.024-.008-.049-.01-.074-.004-.025-.01-.05-.01-.075-.001-.091 0-.196.119-.196.133 0 .099.117.103.2.016.343-.002.365-.33.387zm-.637-.008c-.366.077-.73.022-1.093.029-.185.003-.168-.164-.176-.28-.006-.092-.148-.233.037-.28.18-.044.189.12.216.241.02.084-.002.18.12.266.11-.125.04-.258.067-.373.014-.058.017-.133.1-.134.073-.001.111.05.127.117l.08.349c.136-.062.146-.168.12-.277-.048-.215.095-.223.239-.233.181-.016.16.118.164.229s0 .223-.001.346zm-1.53-.704c-.192.007-.256-.074-.257-.274-.006-1.204-.003-2.407-.054-3.609-.025-.596.023-1.191-.024-1.787-.024-.308-.01-.311.327-.329.214-.01.43-.011.643-.027.165-.014.224.059.233.215.016.28.075.558.066.835-.025.8.06 1.597.046 2.395-.011.71.043 1.42-.02 2.13-.013.143.072.397-.158.39-.137-.003-.052-.236-.057-.364-.045-1.165-.045-2.33-.098-3.495-.03-.67-.006-1.341-.006-2.031-.134.032-.146.094-.145.157.025 1.28.033 2.56.086 3.84.022.534.006 1.064-.008 1.595-.007.328-.021.329-.347.356-.075.009-.151.001-.227.003zm-.251.753c-.276-.008-.436-.241-.35-.511.013-.037.037-.066.08-.066.049.001.105-.003.128.056.04.107.069.216.111.321.024.056.064.126.138.102.084-.026.05-.095.03-.155a1.248 1.248 0 0 1 -.057-.217c-.006-.039.031-.066.07-.077.037-.01.076-.008.095.033.016.035.023.072.036.107.139.368.103.42-.281.407zm-.34-7.478c.034.167.155.326.026.578-.053-.234-.14-.397-.026-.578zm.169 6.485c0 .057 0 .13-.082.15-.091-.365-.17-5.327-.046-5.853.127 1.901.116 3.802.128 5.703zm-.278-11.345a9.426 9.426 0 0 1 -.004-.51c.004-.133-.01-.27-.02-.406a3.393 3.393 0 0 1 -.007-.137c-.004-.123-.04-.292.136-.252.046.178.026.374.032.556l.018.618c.034 1.102.07 2.205.101 3.308.01.328.014.658.008.987-.002.13.014.27-.082.463-.098-.356-.082-.656-.078-.948.013-.888-.058-1.773-.066-2.66-.004-.341-.026-.68-.038-1.019zm-.554 11.591c-.109-.035-.12-.118-.125-.209-.026-.633-.06-1.267-.074-1.9-.019-.85-.024-1.7-.03-2.552a14.97 14.97 0 0 1 .024-1.101c.018-.261.062-.28.306-.275.31.006.358.031.37.3.02.38-.007.763.015 1.142.05.863.013 1.725.029 2.587.001.545.004 1.091.004 1.636 0 .309-.225.468-.52.372zm.388.72c-.134.014-.162-.096-.157-.2.006-.125-.066-.332.12-.336.189-.003.087.215.135.314-.008.097.024.208-.098.222zm-.4-.049c-.133-.159-.068-.312-.043-.469.146.15.095.312.043.469zm-.094-6.936c-.106-.16-.09-.327-.052-.562.139.22.075.395.052.562zm.22-.414c.006-.086.054-.136.147-.126.066.004.123.02.136.097.016.098.035.196.047.295.013.086.03.185-.102.192-.116.007-.232.009-.23-.16.002-.099-.004-.2.002-.298zm-.437-4.745c-.02-.354-.06-.716-.07-1.074a5.204 5.204 0 0 1 .003-.362.162.162 0 0 1 .015-.073c.04-.073.224-.034.29-.028.085.007.168.03.252.04.075.01.144-.003.166.086.066.284.055.596.073.885.02.312.036.624.034.936-.008.876.09 1.747.079 2.623-.005.381-.005.762-.016 1.142-.003.094.017.23-.113.253-.172.03-.355.044-.516-.046-.071-.04-.043-.14-.045-.213-.025-.9-.04-1.8-.076-2.7-.02-.49-.047-.98-.076-1.469zm.03 11.931c-.01.206-.127.22-.273.186-.286-.025-.353-.096-.32-.347.03-.235.222-.166.357-.168.207-.004.251.081.237.329zm-.584-1.683c.027-1.46.106-2.917.149-4.377.004-.126.018-.253.018-.38 0-.11.036-.164.154-.159.112.007.205.021.2.165a5.588 5.588 0 0 0 -.01.343c.002.964.017 1.93.007 2.893-.008.736.007 1.47.056 2.204.004.063 0 .127-.003.19-.017.295-.047.313-.346.297-.153-.009-.233-.054-.228-.224.008-.318.003-.634.003-.952zm.506-5.26c-.006.096-.035.171-.154.16-.102-.01-.197-.017-.212-.154-.042-.374-.07-.361.35-.394.044.141.025.265.016.387zm-.503-3.605c-.017-.501-.015-1.003-.014-1.505 0-.25.006-.501-.003-.752v-.016c-.008-.216-.03-.436-.034-.656-.002-.113.215-.07.272-.03.037.028.043.117.053.165.056.25.055.523.077.778.022.28.043.56.057.84.056 1.152.095 2.306.138 3.46.006.178-.008.357-.01.535 0 .128-.067.172-.188.182-.212.019-.232.001-.25-.212-.054-.634.008-1.269-.048-1.903-.026-.295-.04-.59-.05-.886zm.834-10.839c-.11-.111-.085-.24-.07-.41.158.138.098.278.07.41zm1.017.02c.047 1.088.096 2.176.14 3.265.01.252-.009.506-.014.759h.017c.015.317.03.634.042.95.006.152.01.305.005.457-.003.093.026.23-.13.22-.146-.008-.123-.142-.128-.236-.02-.443-.045-.886-.05-1.33-.006-.647-.075-1.29-.139-1.933-.08-.794-.138-1.59-.075-2.392.006-.071-.024-.164.08-.185.101-.02.168.046.214.125.052.093.033.199.038.3zm.542-.322.04.331c-.114-.099-.07-.216-.04-.33zm-.324-.077c.086.163.072.326.018.489-.096-.165-.035-.327-.018-.49zm3.955 3.322c.139.016.175.077.14.202-.052.193-.05.404-.176.575l.007-.006c-.253.55-.724.83-1.27.999-.29.09-.588-.025-.856-.1a2.519 2.519 0 0 1 -1.19-.716 1.249 1.249 0 0 1 -.328-1.086l-.005.007.002-.011v-.002a2.64 2.64 0 0 1 .216-.753c.263-.6.694-.967 1.389-1.073.639-.097 1.128.184 1.652.425a.3.3 0 0 1 .117.095c.266.372.48.763.51 1.21-.075.082-.116.025-.16.02-.085-.009-.197-.052-.225.067-.028.125.103.139.177.147zm.232.774-.016.793c-.128.064-.433-.082-.425.24.003.17.111.222.26.182a.523.523 0 0 1 -.254.071c-1.05-.031-2.098-.022-3.147-.09-.112-.007-.223-.04-.335-.054-.111-.011-.147-.075-.155-.176-.035-.473-.083-.946-.037-1.48.283 1.016 1.005 1.419 1.902 1.636 1.028.249 1.635-.324 2.207-1.122zm.644 3.476c.004.105-.044.167-.15.178-.103.01-.127-.053-.141-.135a7.272 7.272 0 0 1 -.106-1.32c.001-.147.104-.109.183-.12.11-.014.163.035.167.147.01.316.025.632.038.947h-.006zm-4.551-1.923c-.096.117.082.27-.067.405-.13-.158-.103-.34-.078-.515.016-.112.123-.108.214-.102.226.013.453.032.68.04.744.025 1.489.106 2.235.044.18-.014.353.03.53.07-1.167.082-2.337.038-3.514.058zm3.187.197c.116-.016.172.027.181.111.007.06-.047.08-.098.08-.07-.004-.159.011-.172-.088-.01-.077.05-.1.09-.103zm-.537.058c.035-.067.101-.067.165-.05.04.011.054.045.046.086-.025.076-.084.09-.15.076-.059-.013-.09-.055-.061-.112zm-.352-.069c.07.004.127.04.13.108.004.082-.067.092-.131.09a1.472 1.472 0 0 1 -.186-.016c-.071-.011-.162-.014-.15-.12.011-.087.095-.06.15-.069.025-.003.05 0 .075.002v.001zm-.91.074c-.012-.113.093-.08.148-.094.079.012.179-.017.186.085.007.1-.083.105-.159.103-.074-.002-.167 0-.175-.094zm-.734.118c-.113.008-.225.02-.337.022-.05 0-.104-.022-.095-.09.007-.053.039-.102.092-.106.1-.009.214-.036.297 0 .141.064.259.142.394-.008.025-.03.11-.01.127.042.026.08-.035.114-.103.119-.125.008-.25.008-.375.012v.008zm-.106.597c.016.004.028.03.041.047l-.011.028c-.018-.01-.04-.02-.051-.034-.02-.026-.01-.05.02-.041zm.048.607c-.002.076.012.153.02.229.04.37.036.375-.369.376-.175.046-.254-.055-.287-.234-.049-.27.04-.526.084-.785.023-.138.234-.155.335-.017.094.126.22.249.217.431zm.296.315c-.002.03-.027.03-.07-.011-.059-.287-.072-.59.028-.892.091.297.06.601.042.903zm.84-.942c.011-.013.045-.01.068-.007.03.005.037.027.024.056-.02.006-.045.023-.06.017-.024-.01-.074-.024-.033-.066zm-.53.437c.064-.134.124-.284.329-.231.18.045.354.21.366.37.004.038-.001.076-.002.113-.015.457-.024.468-.485.495-.252.015-.263.003-.307-.24-.033-.184.022-.348.1-.507zm-.087-.372a.117.117 0 0 1 .027-.066c.021-.02.053-.015.062.013.012.038.001.075-.091.1.019-.005-.001-.016.002-.047zm1.037-.101c.19.419.067.797.052 1.245-.217-.225-.145-.447-.134-.638.011-.188-.126-.396.082-.607zm.695.029c.061-.053.121-.018.167.019.068.055.062.17.025.203-.089.076-.075-.075-.137-.094-.042-.014-.073-.07-.055-.128zm.274.888c-.016.168-.037.27-.23.25-.062-.005-.125 0-.188 0-.224 0-.343-.126-.294-.34.046-.204.122-.405.209-.678.234.267.539.389.503.768zm.35.27c-.216-.305-.277-.805-.098-1.13.031.36.062.72.099 1.13zm.139-1.13a.452.452 0 0 1 .034-.051l.024.02c-.012.02-.026.037-.039.054-.007-.008-.02-.02-.02-.023zm.154.192c.348.214.264.52.254.806-.004.098-.083.11-.164.116-.084.005-.139-.012-.171-.104a.937.937 0 0 1 .08-.818zm-.002-1.517c.05-.004.08-.096.141-.036.011.009.009.052-.003.063-.057.058-.095.001-.138-.027zm-.103.507c.054.011.075.058.077.112-.004.041-.024.069-.07.063-.056-.006-.084-.05-.093-.098-.01-.06.03-.09.086-.077zm.317.401c-.133.17-.283.149-.415.153-.277.01-.555-.003-.833 0-.895.006-1.788.016-2.683.024-.048.001-.095-.001-.143-.003-.028-.177.103-.181.19-.181.593 0 1.189-.113 1.777-.037.546.07 1.084-.006 1.625.006.148.003.297-.022.482.038zm-4.49.67c.004-.153.005-.33.012-.508.003-.068.035-.12.116-.115.06.005.088.046.088.1-.005.443.077.877.103 1.318.005.092-.019.186-.138.183-.1-.004-.103-.087-.117-.163-.054-.262-.041-.528-.063-.816zm-.535-.635c.252.004.362-.017.358.338-.004.34.027.68.038 1.02.006.248-.033.283-.285.277-.269-.008-.283-.026-.357-.306a3.318 3.318 0 0 1 -.126-.88c-.032-.39.13-.45.372-.449zm-.588.038.16 1.466c-.252-.469-.287-.96-.16-1.466zm2.3 8.23c.019.144.038.287.058.45-.157-.213-.157-.213-.057-.45zm-.215-.635c.009-.91.035-1.822-.004-2.735-.036-.81-.033-1.621-.046-2.43l.001-.051h-.013v-.01a.412.412 0 0 0 -.011-.237c.084.003.169.004.253.006-.008.085.012.17.02.254h-.002a.87.87 0 0 1 .001.102c-.013.329-.032.66-.049.988-.041 1.37.013 2.735.078 4.102.007.139.044.385-.117.385-.195 0-.112-.233-.111-.374zm-.523.824c.009-.095-.017-.227.137-.22.13.006.291-.017.33.173.023.11.04.221.065.36-.068.019-.102.032-.138.037-.383.06-.428.02-.394-.35zm-.316-.425c-.129-.035-.103-.157-.111-.255-.046-.541-.012-1.086-.035-1.63-.036-.872-.047-1.746-.09-2.62a7.406 7.406 0 0 1 .006-.694c.008-.214.002-.429.02-.643a.078.078 0 0 1 .012-.04c.032-.034.106-.02.146-.017.225.01.445.023.665.03 0 .028.007.056.009.075.004.057.012.114.018.17.007.068.007.158.005.277-.022 1.217.125 2.43.048 3.778.004.26.011.653.011 1.044 0 .14-.024.278-.037.417-.006.067-.032.136-.102.141-.189.017-.38.017-.564-.033zm.15.533c-.007.052-.005.12-.028.175-.037.086-.126.093-.192.056-.139-.073-.069-.226-.107-.34-.033-.093.012-.174.091-.228.091-.062.208-.013.227.1.014.073.008.15.01.237zm3.157-.305c.247-.002.18.18.189.343.021.15-.07.193-.223.177-.14-.014-.23-.154-.23-.353.002-.197.14-.166.264-.167zm-.807.526-.066-.001c-.038-.119-.08-.236-.111-.355-.019-.075-.022-.162.081-.176.123-.017.153.069.144.168-.01.121-.031.242-.048.364zm-1.08.02c-.216-.036-.168-.218-.177-.36-.008-.104.008-.209.156-.2.123.008.19.16.173.405.008.106-.041.173-.152.154zm.8-.03c-.437.012-.529-.067-.51-.38.007-.123.066-.18.184-.188.113-.005.231-.022.255.14.02.136.044.271.07.428zm.161-5.205c.018.989.041 1.978.061 2.968.009.405.015.813.019 1.219a.458.458 0 0 1 -.106.315c-.116-.473-.062-.895-.096-1.308-.04-.505-.07-1.011-.067-1.516v-.004c.003-.502-.025-1.003-.048-1.503-.01-.251-.02-.501-.024-.752-.003-.222-.02-.438-.027-.659-.002-.055-.023-.145.023-.185.055-.05.23-.05.234.046.004.095.002.19.014.284.013.107.008.202.009.308.002.261.003.524.008.786zm-1.244-.333c.019-.306.076-.618.052-.922-.006-.077-.008-.123.077-.138.192-.033.409-.006.605-.02.1-.006.075.056.082.144.033.412.024.832.04 1.246.014.427.027.854.027 1.281-.004.594.054 1.188.077 1.781.016.405.018.81.03 1.215.005.143-.061.21-.197.22-.038.004-.076.014-.113.017-.595.05-.595.041-.608-.559-.015-.645-.055-1.289-.073-1.934-.01-.405-.02-.811.002-1.215.022-.393-.054-.785 0-1.116zm1.112 11.258c.012.1-.011.203-.024.303-.014.118-.076.18-.203.172a6.321 6.321 0 0 0 -.418-.008c-.28.005-.301-.005-.306-.286-.012-.747-.012-1.495-.022-2.242-.007-.47-.008-.94-.035-1.408-.033-.61.002-1.217.014-1.825.003-.149.05-.209.189-.215.05-.002.1-.024.15-.02.493.029.505-.081.548.477.058.747.053 1.494.065 2.242.008.57.12 1.137.038 1.584 0 .492-.04.859.004 1.226zm.285-.984c.006.418.01.836.01 1.254 0 .071-.002.17-.113.153-.076-.013-.07-.098-.07-.16.007-.341.013-.683.025-1.026.043-1.268-.081-2.533-.075-3.801.001-.19-.027-.379-.027-.569 0-.119-.056-.251.07-.376.137.103.102.249.104.373.01.393.01.787.017 1.18.002.121-.03.252.07.354-.016.163-.048.325-.047.489.007.709.025 1.418.036 2.129zm.273-4.711c-.065.004-.127-.007-.13-.094-.004-.16-.005-.316.12-.453.074.134.05.276.106.4.045.099-.004.142-.096.147zm-.173-1.023c-.038-1.064-.077-2.128-.07-3.193.003-.432-.032-.863-.045-1.293-.01-.303-.01-.604-.021-.907-.002-.057-.029-.22.021-.263.04-.034.178-.017.231-.02.186-.01.372-.02.558-.028a8.615 8.615 0 0 1 .056.369c.054.437.04.877.037 1.313-.003.636.048 1.27.003 1.905a25.2 25.2 0 0 0 .027 2.053c.013.31-.023.34-.339.347-.05.001-.101.006-.152.005-.297-.002-.296-.002-.306-.288zm1.867.706c.005-.093-.01-.218.149-.18.089.022.142.406.066.466-.063.05-.138.06-.188-.025-.047-.08-.023-.17-.027-.261zm-.833 6.082c.001-1.807.002-3.615.006-5.422 0-.013.035-.025.103-.07.023 1.858.07 3.683-.11 5.492zm.04-6.243c.125.176.11.316.1.51-.194-.157-.147-.303-.1-.51zm.614.287c.001.136-.03.226-.19.206-.096-.011-.163-.173-.155-.383-.009-.102.04-.157.151-.16.148-.004.192.08.194.337zm-.452-1.044c.013-1.392-.059-2.782-.067-4.175-.002-.375.05-.753.018-1.13-.006-.063-.014-.128-.004-.191.273-.042.536-.005.811.02 0 .122.012.242.034.36h-.005c.022.452.037.902.027 1.354-.014.632.029 1.266.008 1.897-.025.784.012 1.569-.059 2.341-.097.059-.188.023-.273.032-.408.046-.496.099-.49-.508zm1.246 1.219c-.062-.013-.08-.01-.085-.018-.093-.132-.195-.263-.08-.431.016-.022.092-.03.098-.02.085.14.101.294.067.469zm.406-5.494-.02.756a243.1 243.1 0 0 0 -.051 2.087c-.01.557 0 1.114.008 1.672.002.127.05.258-.138.293-.22.041-.421-.037-.474-.2a1.059 1.059 0 0 1 -.042-.377c.054-.913.051-1.827.026-2.738-.025-.907.046-1.812-.016-2.716.093-.007.186-.015.278-.02.016.206.025.413.028.62 0 .01.004.017.01.021a67.9 67.9 0 0 0 .05 2.993c.024.684-.028 1.37-.043 2.056-.002.093-.06.252.067.257.167.005.105-.16.102-.267-.013-.52.024-1.038.005-1.558-.01-.283-.018-.567-.025-.85-.01-.505-.019-1.01-.027-1.517-.004-.22-.026-.435-.012-.653.015-.246.019-.493.022-.738.001-.12.02-.248.005-.367.059-.017.14-.005.203-.001l.05-.008c-.038.006.008.333.008.373.003.292-.005.588-.014.882zm-.07 5.304c-.004.048-.005.1-.017.149-.005.017-.034.036-.056.04-.041.01-.075-.012-.082-.053a.439.439 0 0 1 -.008-.15c.016-.092-.06-.256.062-.258.161-.003.08.171.102.272zm-.194 4.087c.037-.387-.015-.784-.028-1.177-.025-.735-.055-1.471-.004-2.206.007-.101-.04-.274.126-.267.153.008.112.167.108.277-.002.076-.007.152-.01.227-.002.887-.026 1.773.022 2.66.041.784.07 1.568.146 2.35.007.063.001.127.001.19.001.096-.056.139-.14.145-.092.007-.19-.002-.21-.114-.028-.15-.057-.303-.05-.453.024-.543-.013-1.086.04-1.632zm.917-4.939c.016.296-.017.316-.275.333-.26.016-.273.016-.27-.262.005-.622-.036-1.241-.012-1.863.04-1.002.05-2.003.078-3.004.006-.249.022-.498.027-.746.002-.064.005-.127.004-.191l.39-.056c.02.188.035.375.047.563.048.776.033 1.557.042 2.335.004.368.03.744.013 1.113-.028.612-.077 1.194-.044 1.778zm-.127-6.103c.052.003.097.037.103.094.005.055-.027.091-.08.112-.108.041-.22.053-.335.056-.619.02-1.237.047-1.857.058-.452.008-.916-.016-1.355.027-.912.089-1.816.076-2.723.02-.527-.032-1.052-.116-1.579-.176-.034-.006-.064-.03-.163-.082.573-.084 1.07.085 1.57.057.73-.041 1.461-.017 2.191-.077.603-.05 1.211-.037 1.817-.049.691-.014 1.383.096 2.072-.044.109-.022.227-.003.339.004zm-.236-.403c-.15-.41-.038-.834-.025-1.256.082.414-.04.836.025 1.256zm-.245-.466c-.003.165-.017.33-.007.493.01.173-.092.211-.228.227-.155.018-.198-.075-.204-.204l-.046-1.133c-.003-.105-.008-.21.144-.208.123.003.265-.028.3.147.02.099.034.2.037.3.005.125-.003.252-.006.378zm-.326-7.01c.14.16.162.294.071.485-.135-.157-.155-.29-.07-.484zm-.376.864c.002-.096.013-.172.138-.177.15-.006.15.077.154.192.025.72.114 1.437.133 2.159.022.847.075 1.693.113 2.54.005.087 0 .176 0 .264 0 .094-.053.137-.14.145-.093.007-.189-.005-.213-.111-.023-.098-.023-.201-.026-.303-.047-1.164-.092-2.329-.138-3.493l-.045-.001zm.015-.682c-.004-.033.001-.073.05-.092.018.028.047.056.055.09.022.08.07.167-.011.242-.013.012-.054.012-.07 0-.099-.068-.016-.16-.024-.24zm-.014 5.559c.007.151-.022.25-.192.256-.169.005-.176-.118-.18-.233-.018-.811-.025-1.623-.049-2.434-.018-.633-.053-1.264-.083-1.899-.019-.378-.044-.756-.063-1.135-.005-.113-.022-.231.158-.237.162-.005.188.089.196.212.028.417.069.834.084 1.252.025.695.034 1.394.054 2.266-.02.534.043 1.243.075 1.952zm-1.356-5.448c-.019-.133-.05-.256.137-.248.179.009.143.15.152.251.018.224-.087.323-.243.246-.135-.067-.02-.181-.046-.25zm.204-.444c-.184.088-.326-.02-.354-.228-.035-.27.1-.479.205-.7a.129.129 0 0 1 .088-.064c.059-.007.084.039.09.094.022.188.115.366.067.563-.022.113.059.261-.096.335zm.38.648c-.074-.101-.121-.204-.075-.358.116.127.085.246.076.358zm-.03-1.924c0 .36-.06.718-.024 1.078-.074-.137-.017-.288-.035-.432-.01-.074.008-.157-.017-.224-.05-.138-.035-.324-.198-.388-.183-.072-.302.064-.414.187-.086-.036-.05-.107-.057-.16-.053-.405-.051-.406.342-.398l.075.003c.39.017.327.023.328.334zm-3.081 2.132c.96.016 1.92.038 2.88.042.203.001.286.045.313.264.04.343.02.682.053 1.116-.41-.668-1.028-.85-1.635-.969-1.031-.203-1.917.405-2.208 1.426-.049.168-.116.331-.174.495-.076-.016-.079-.07-.079-.118.003-.66-.057-1.314-.09-1.972-.015-.272-.007-.29.258-.294.226-.007.454.006.682.01zm-.014-.67c-.003.123-.008.248-.007.372 0 .075-.03.12-.105.125-.074.002-.155.002-.171-.1-.01-.049-.012-.1-.02-.148-.043-.288-.034-.296.303-.25zm.115-.698c-.002.089-.003.178-.006.266-.003.12-.014.22-.18.226-.154.003-.202-.038-.228-.2-.032-.204-.052-.403-.01-.6.027-.122.092-.254.25-.24.169.014.18.148.174.283-.005.089-.005.177-.006.265zm.167-.655c-.341-.187-.343-.186-.716-.005-.062-.06-.032-.139-.035-.209-.006-.14.063-.21.203-.206h.113c.527.008.424.017.435.42zm-.012 1.817c-.153-.16-.056-.3-.03-.43.034.13.104.259.03.43zm.081-1.472.056.714c-.138-.236-.171-.474-.056-.714zm.153-.166c-.05.046-.099.094-.148.141l-.009-.133zm.623 1.16.082.008c.008.109.02.218.021.327 0 .067.023.174-.09.163-.091-.009-.094-.106-.096-.181-.002-.116.042-.216.083-.318zm-.56-.448c-.044-.261-.044-.499.18-.686.133-.11.225-.09.272.08.044.157.072.32.048.53-.025.089.07.274-.14.335-.228.067-.32-.014-.36-.26zm.294.722c-.016.115.032.273-.17.27-.162-.001-.203-.087-.215-.328-.008-.178.079-.218.227-.218.22-.002.134.166.157.276zm.472-.494c-.105-.32-.106-.453-.015-.659.056.209.085.414.015.66zm.351.227c.265.008.295.051.301.315.005.256-.186.19-.316.199-.223.013-.273-.07-.269-.336.005-.23.165-.17.284-.178zm.257-.665c-.01.125-.016.251-.035.375-.015.094-.098.103-.176.105-.064.003-.146-.005-.152-.077-.026-.271-.128-.547.028-.813.039-.066.087-.138.172-.125.1.015.142.097.144.193 0 .113-.005.227-.007.34a.11.11 0 0 1 .026.002zm.325 1.192c-.06-.184-.139-.293-.075-.425.154.126.154.126.075.425zm-.076-.779c-.108-.083-.086-.184-.086-.273 0-.177.01-.354.01-.532-.005-.348-.184-.471-.514-.354-.045.016-.082.055-.136.041-.081-.098.003-.345-.19-.305-.131.026.007.223-.03.338-.004.012-.004.024-.01.053-.134-.052-.232-.197-.384-.178-.165.022-.231.18-.335.285-.146-.602-.134-.611.484-.59.277.011.555-.004.833 0 .29.002.291.006.343.277.022.112.048.227.045.339-.008.289.033.58-.03.899zm-3.281-1.364c.006-.157.118-.17.229-.163.116.002.218.016.205.159-.02.235-.218.072-.323.136-.094.055-.114-.058-.111-.132zm.004.568c.002-.1.037-.186.148-.179.097.005.105.098.106.174.005.178.002.355.006.533.002.075.01.17.117.151.076-.013.075-.095.062-.156-.036-.174-.075-.346.053-.505.065.05.065.116.069.177.014.2.023.4.033.591-.042.021-.063.04-.086.041-.521.014-.521.014-.514-.522zm-.409-.596c-.012-.066.023-.133.097-.14.1-.008.122.07.127.15.01.126.014.253.018.379.01.278-.022.556.024.832.014.084-.02.15-.115.162-.105.014-.178-.027-.181-.139-.004-.125.003-.252.005-.353-.06-.316.08-.6.025-.891zm-.353 2.256c.193-.003.246.09.258.28.063.946.157 1.89.214 2.837.042.694.044 1.39.062 2.086.002.105-.008.22-.153.205-.138-.014-.322.078-.388-.133-.027-.083-.032-.174-.037-.262a1013 1013 0 0 1 -.17-2.879c-.02-.354-.04-.708-.054-1.062-.009-.226-.05-.453.065-.67.064-.12-.058-.241-.02-.364.071-.05.148-.036.223-.038zm.241-.597c.006.061.005.123.007.185.004.088.015.184-.116.18-.11-.002-.146-.077-.152-.172-.005-.063-.01-.125-.006-.186.005-.092.066-.127.15-.124.071.003.112.046.117.117zm-.046-.5c-.002.071-.013.15-.156.231-.072-.502-.141-.968-.045-1.442.009-.047.012-.103.082-.103.075-.002.115.038.13.108.006.036.01.075.009.112-.006.365-.01.729-.02 1.093zm-.466 5.257c.003.354.048.707.07 1.061.005.077.006.16-.104.164-.095.006-.128-.048-.135-.14-.017-.213-.057-.427-.062-.64-.016-.836-.014-1.671-.035-2.507-.008-.34-.055-.68-.083-1.02a3.874 3.874 0 0 1 .037-1.087c.146.082.121.178.124.26.034 1.305.175 2.604.188 3.91zm-.596 1.344c.137.003.194.048.207.198.037.426.094.85.145 1.275.012.109-.026.161-.142.17-.296.022-.383-.043-.407-.337-.026-.313-.05-.628-.075-.96-.007-.308.028-.352.271-.346zm-.294-5.293c.002-.12-.013-.228.161-.228.173 0 .17.122.172.235.008.722.123 1.436.139 2.158.012.53.003 1.063.038 1.57a9.054 9.054 0 0 0 0 1.162c.009.15-.025.249-.2.248-.18 0-.189-.11-.193-.254-.029-1.024-.035-2.05-.107-3.07-.043-.61-.023-1.214-.01-1.82zm1.881-7.458c.886-1.778 1.388-3.598 1.825-5.442.342.933.51 1.904.875 2.817.36.901.926 1.705 1.26 2.656-1.328.123-2.617.073-3.96-.031zm1.907-6.737c.002-.04.016-.044.02-.028l-.007.31h-.02c.001-.094.001-.189.007-.282zm-2.082 6.58c-.017.047-.04.089-.098.08-.007-.001-.015-.019-.018-.03-.01-.057.012-.09.071-.099l.063-.01a.828.828 0 0 1 -.018.06zm-1.89 7.147c-.175-.012-.172-.15-.178-.279-.003-.07.02-.123.1-.129.119.003.222.131.216.264-.005.09-.047.15-.137.144zm.098 5.394c-.009.11-.092.139-.193.134-.091-.004-.125-.055-.141-.142-.044-.242.005-.48.016-.718.01-.177.008-.355.012-.532-.014-1.192-.03-2.382.012-3.573.003-.063-.004-.127 0-.19.004-.037.021-.075.068-.078.063-.008.094.03.097.086.01.176.021.354.021.53.002 1.344.09 2.684.122 4.026.003.152 0 .305-.014.457zm-.021 1.706c-.209-.378-.199-.794-.24-1.201-.018-.178.074-.189.21-.153-.098.454.076.898.03 1.354zm-.04-8.018.01.011-.012-.01c-.109-.22-.127-.455-.137-.77.139.293.12.534.138.77zm.262-2.416c.119.205.011.344-.176.493.252.044.313.179.3.366-.03.46.032.912.104 1.364a.665.665 0 0 1 -.035.374c-.037.085-.102.113-.182.1-.078-.01-.087-.079-.091-.144-.025-.328-.084-.659-.064-.985.026-.426-.155-.818-.144-1.237.001-.063-.028-.13-.107-.13-.052 0-.093.035-.116.085a1.712 1.712 0 0 0 -.122.947c.057.425.078.857.143 1.281.018.122.026.255-.115.336-.091.052-.072.151-.075.24-.02.544.016 1.088.011 1.632-.007.888-.02 1.777.001 2.666.014.557-.105 1.112-.012 1.67.051.3.052.606.101.904.05.3.045.634.303.873.044.042.04.142.048.217l.003.027a.768.768 0 0 0 -.002.22l-.007-.001c.03.48.042.96.033 1.441a17.52 17.52 0 0 0 .039 1.79c.1 1.228.082 2.461.13 3.692.04 1-.057 2.004-.088 3.007-.038 1.219-.053 2.437-.073 3.656-.004.258.022.517.034.781.042-.012.059-.01.065-.018.068-.075.038-.168.044-.253.028-.328.026-.329.36-.31.86.048 1.723.039 2.585.032 1.627-.016 3.25-.171 4.879-.155.44.004.49.046.418.462-.008.05-.036.099-.034.147.003.084.003.184.145.179.07-.289.046-.581.033-.87-.019-.469-.05-.938-.054-1.406-.008-.965-.005-1.93 0-2.893.005-1.09-.051-2.176-.04-3.268.01-.965.096-1.927.055-2.893-.027-.672-.06-1.346-.031-2.015.007-.183-.005-.367-.014-.551.01-.28.035-.555.075-.83v-.004c.028-.139.078-.275.16-.406a.123.123 0 0 0 .012-.074c-.06-.57.09-1.137.025-1.708-.088-.782-.056-1.57-.082-2.354-.033-.976.035-1.956.055-2.933a3.07 3.07 0 0 0 -.025-.533c-.026-.165-.085-.325-.316-.287-.126.02-.179-.04-.177-.173.003-.236-.01-.47-.017-.706.072.15.05.314.061.473.008.092-.049.243.097.24.135-.003.093-.156.09-.244-.03-.656-.146-1.308-.135-1.968a.215.215 0 0 0 -.024-.11c-.018-.029-.054-.062-.085-.063-.03-.002-.082.027-.091.053-.097.299-.244.616-.186.916.104.527.091 1.055.107 1.583-.11.01-.282.13-.284-.086-.004-.328-.053-.652-.036-.985.015-.278.138-.57-.006-.855-.04-.08.056-.196.037-.247-.097-.265-.119-.503.048-.752.05-.075-.018-.173-.113-.208-.113-.042-.235-.044-.311.06a.247.247 0 0 0 .023.318c.09.1.192.223.1.332-.131.152-.118.251.01.384.036.04.068.14-.048.188-.034-.038-.07-.073-.098-.113-.443-.623-.755-1.311-1.004-2.03a.632.632 0 0 1 -.023-.302c.039-.24.021-.483-.007-.717a1.474 1.474 0 0 1 .039-.596c.075-.26.081-.524.074-.79a5.418 5.418 0 0 1 -.001-.228c.002-.16.224-.138.235-.27.01-.11-.208-.1-.17-.276.028-.131.09-.233.146-.345.057-.111.028-.203-.103-.227-.118-.024-.231.032-.314.102-.09.076-.052.19.003.278.062.1.144.22.046.31-.137.125-.096.22-.03.355a.253.253 0 0 1 -.042.276c-.205-.05-.178-.234-.214-.369-.035-.134-.032-.28-.13-.39-.233-.261-.335-.59-.469-.904-.06-.14-.095-.318-.201-.403-.309-.243-.335-.605-.452-.928-.008-.025-.013-.05-.023-.073-.27-.646-.335-1.35-.547-2.012-.034-.107-.025-.227-.042-.34-.016-.108-.002-.195.1-.262.151-.099.163-.226.023-.34-.126-.102-.14-.225-.134-.372.009-.216-.001-.431-.001-.647 0-.11-.014-.206-.15-.218-.129-.012-.183.073-.21.177a.995.995 0 0 0 -.027.224c-.006.153-.007.305-.009.458-.001.139.007.274-.125.377-.092.07-.098.182-.031.275.078.108.05.215.032.327-.212 1.307-.62 2.56-1.057 3.802-.174.495-.367.987-.677 1.42.01-.058.01-.114-.052-.143-.204-.094-.15-.267-.132-.426.005-.049.041-.092.06-.139.042-.104.037-.206-.064-.268-.077-.048-.173-.055-.249.013-.08.072-.12.165-.078.274.022.059.064.112.079.172.037.156.115.32-.084.438-.07.042-.057.13.026.126.17-.011.138.11.158.2.026.116-.022.244.044.377.114-.103.174-.225.35-.216.797.037 1.596.046 2.393.08.289.013.57.05.865.002.281-.046.58.01.87.02.07.002.137.014.142.091.007.114-.087.1-.16.107-.669.066-1.34.002-2.011.036-.645.032-1.29.037-1.93-.05a.71.71 0 0 0 -.263.015c-.152.034-.24.096-.243.278-.005.254-.01.504.022.76.04.324.044.651-.025.98-.105.502-.364.918-.662 1.314-.098.132-.172.3-.345.383-.053-.222-.105-.414.018-.61.072-.114.091-.257-.087-.305-.16-.043-.23.062-.257.204-.01.061-.035.14-.008.184z"/><path d="m34.493 81.787a2.81 2.81 0 0 0 -.264-.037c-.452-.044-.78-.24-.884-.715a1.432 1.432 0 0 0 -.079-.253c-.046-.109-.039-.33-.168-.292-.196.056-.043.228-.01.347.102.36.322.682.331 1.072.004.13.176.235.282.162.252-.173.504-.111.764-.065.084.02.165.004.177-.088.013-.095-.075-.118-.15-.131zm-2.723.104-.003.005-.002.002h.002l.005-.004-.001-.003zm.38.14a.108.108 0 0 0 .088-.105c.003-.052-.03-.091-.085-.104a.45.45 0 0 0 -.38.072c.083.162.223.17.378.137zm.713 1.029c-.106-.007-.147.075-.172.16-.015.05.014.093.073.114.1.007.144-.07.178-.147.033-.072-.008-.123-.079-.127zm.877.194c-.101-.016-.104.08-.103.18.033.044-.028.173.116.165.072-.005.108-.063.096-.131-.014-.082-.004-.197-.11-.214zm-.913-2.468c.056-.001.074-.058.073-.112-.002-.1-.056-.16-.15-.184-.05.017-.099.049-.095.1.008.103.046.2.172.196zm2.043.234c-.006.013.015.055.032.06.155.052.263.004.312-.177-.143-.036-.27-.043-.343.117zm-1.238-.464c.107.016.105-.089.105-.158 0-.081.039-.199-.08-.218-.107-.017-.093.091-.107.164.01.076-.047.193.082.212zm.671.077c.131.004.151-.11.177-.204.013-.048.002-.1-.064-.12-.124.01-.15.11-.172.208-.011.052.001.115.06.117zm-2.165 2.166c-.014.034.007.082.044.087.117.018.175-.07.23-.152.012-.017.005-.046.007-.09-.144-.039-.226.033-.28.155zm3.076-.186c-.018.096.012.173.126.188.021.003.045-.004.068-.007.005-.023.011-.045.012-.068.001-.084-.025-.153-.116-.163-.03-.004-.085.026-.09.05zm.2.18-.006.001-.001.005zm-.98.444c-.052-.006-.08.023-.08.06 0 .077.032.142.118.157.044.008.07-.028.072-.064.007-.082-.034-.137-.11-.153zm-2.062-2.003c-.008-.066-.048-.12-.124-.12-.056.002-.097.035-.102.092-.006.084.053.104.124.107.046-.01.11-.01.102-.08zm1.253-11.742c-.226.155-.296.352-.327.57.102.034.136.01.154-.021.098-.176.197-.16.304-.01.014.02.033.038.05.056.038.04.085.058.132.025.069-.047.054-.116.006-.16-.14-.123-.204-.304-.32-.46zm-1.168 1.895c-.018-.085-.048-.17-.156-.223-.164.137-.322.282-.385.537.135.02.185-.038.234-.096.045-.051.099-.085.162-.045.1.058.196.232.307.082.085-.115-.139-.143-.162-.255zm1.193-.082c-.059-.068-.152-.075-.192-.004-.075.13-.22.244-.166.404.158.099.157-.236.318-.076.06.06.11.17.204.066.076-.085-.015-.16-.06-.232-.033-.053-.063-.111-.103-.158zm.973.374c.025.031.075.025.096-.01.018-.03.034-.08.02-.103-.074-.13-.156-.278-.302-.308-.17-.036-.165.154-.228.252-.033.05-.082.097-.041.22.155-.047.29-.26.455-.051zm-1.881-2.127c-.08.132-.169.275-.25.423-.012.022.002.08.024.096.02.017.07.014.1.002.072-.028.084-.168.204-.112.065.03.1.191.198.066.07-.09-.036-.159-.08-.226-.051-.08-.03-.206-.196-.249zm.661-.956c.006-.011.006-.025.01-.044-.039-.086-.084-.175-.118-.268-.027-.072-.042-.155-.137-.16-.117-.008-.138.088-.165.174-.023.071-.077.15-.065.214.043.219.278-.07.353.12.01.029.094.023.122-.036zm-.291 6.362a.52.52 0 0 0 -.077-.082c-.056-.045-.12-.05-.168.003-.116.126-.241.25-.2.446.13.025.16-.066.206-.139.04-.065.089-.066.156-.038.086.037.176.22.266.053.069-.13-.12-.16-.183-.243zm1.698-.079c-.067-.053-.152-.056-.206.004-.108.124-.205.26-.153.463.162-.062.141-.218.248-.275.028.02.056.046.088.061.095.043.088.281.218.181.12-.092-.05-.213-.102-.319a.384.384 0 0 0 -.094-.115zm-3.204.037c-.11-.136-.207-.12-.276.042-.045.103-.158.2-.098.34.173.015.142-.193.221-.216.18-.002.24.18.441.155-.052-.176-.204-.217-.288-.32zm3.935.661c-.048-.064-.112-.128-.18-.053-.085.095-.215.171-.205.327.003.036.068.062.089.035.14-.177.252-.112.37.025.025.03.07.017.098-.01.016-.015.021-.042.033-.07-.067-.083-.137-.167-.205-.254zm-4.964.337c.221-.103.366-.17.515-.048.035.028.105.005.126-.044.011-.026-.007-.075-.029-.102-.219-.272-.376-.24-.612.194zm1.722-.352c-.035-.05-.074-.1-.18-.111-.07.102-.174.202-.215.367.17.063.2-.14.338-.09.074.026.156.205.232.04.054-.114-.121-.13-.175-.206zm1.506-.108c-.11-.035-.189.045-.25.131-.037.05-.076.1-.107.155-.019.036-.004.07.042.095.116-.008.111-.156.256-.213.046.067.072.16.164.188.058.016.12-.006.102-.063-.036-.117-.08-.249-.207-.293zm1.328 4.691c.14-.004.262-.121.248-.24-.015-.129-.096-.22-.223-.21-.15.011-.2.144-.21.272-.01.127.086.168.185.178z"/></g></g></svg>