<?xml version="1.0"?>
<svg xmlns="http://www.w3.org/2000/svg" height="512px" viewBox="0 0 60 60" width="512px"><g><g id="Page-1" fill="none" fill-rule="evenodd"><g id="023---Pointer" fill="rgb(0,0,0)" fill-rule="nonzero"><path id="Shape" d="m59 13h-4c-.5522847 0-1 .4477153-1 1s.4477153 1 1 1h4c.5522847 0 1-.4477153 1-1s-.4477153-1-1-1z" data-original="#000000" class="active-path" data-old_color="#000000" fill="#D6722D"/><path id="Shape" d="m33 13c-.5522847 0-1 .4477153-1 1s.4477153 1 1 1h4c.5522847 0 1-.4477153 1-1s-.4477153-1-1-1z" data-original="#000000" class="active-path" data-old_color="#000000" fill="#D6722D"/><path id="Shape" d="m53.071 19.657c-.3923789-.3789722-1.0160848-.3735524-1.4018186.0121814s-.3911536 1.0094397-.0121814 1.4018186l2.828 2.829c.3907415.3907414 1.0242585.3907414 1.415 0 .3907414-.3907415.3907414-1.0242585 0-1.415z" data-original="#000000" class="active-path" data-old_color="#000000" fill="#D6722D"/><path id="Shape" d="m39.636 8.636c.4043959-.00008635.7689341-.2437275.923678-.61734544s.0692299-.80366031-.216678-1.08965456l-2.828-2.829c-.3907415-.39074146-1.0242585-.39074146-1.415 0s-.3907415 1.02425854 0 1.415l2.828 2.828c.1877377.18779456.4424587.29320875.708.293z" data-original="#000000" class="active-path" data-old_color="#000000" fill="#D6722D"/><path id="Shape" d="m46 22c-.5522847 0-1 .4477153-1 1v4c0 .5522847.4477153 1 1 1s1-.4477153 1-1v-4c0-.5522847-.4477153-1-1-1z" data-original="#000000" class="active-path" data-old_color="#000000" fill="#D6722D"/><path id="Shape" d="m45 1v4c0 .55228475.4477153 1 1 1s1-.44771525 1-1v-4c0-.55228475-.4477153-1-1-1s-1 .44771525-1 1z" data-original="#000000" class="active-path" data-old_color="#000000" fill="#D6722D"/><path id="Shape" d="m55.9 4.1c-.3904999-.39038194-1.0235001-.39038194-1.414 0l-2.829 2.829c-.2599566.25107447-.3642126.62287789-.2726972.97250732.0915155.34962944.3645604.6226744.7141899.71418984.3496294.09151544.7214328-.01274058.9725073-.27269716l2.829-2.828c.187777-.18756826.2932867-.44209075.2932867-.7075s-.1055097-.51993174-.2932867-.7075z" data-original="#000000" class="active-path" data-old_color="#000000" fill="#D6722D"/><path id="Shape" d="m7.643 59.415c.78077015.7794319 2.04522985.7794319 2.826 0l13.29-13.293c.3266764.4454177.9525823.5416764 1.398.215s.5416764-.9525823.215-1.398c-.3451884-.4694751-.8779641-.7650561-1.4589907-.80944-.5810266-.044384-1.1525168.1668433-1.5650093.57844l-13.291 13.292-7.057-7.055 13.292-13.293c.4115967-.4124925.622824-.9839827.57844-1.5650093-.0443839-.5810266-.3399649-1.1138023-.80944-1.4589907l-8.045-5.9 34.984-10.728-10.728 34.984-3.355-4.575c-.211144-.2888492-.5603483-.443113-.916071-.4046815-.3557228.0384314-.6639212.2637193-.8085.591-.1445788.3272806-.103573.7068323.107571.9956815l3.355 4.576c.4483964.6076183 1.2007993.9108727 1.9452234.7840183.744424-.1268544 1.3539268-.662186 1.5757766-1.3840183l10.735-34.981c.2180523-.7081554.026718-1.4788335-.4972243-2.0027757-.5239422-.5239423-1.2946203-.7152766-2.0027757-.4972243l-34.981 10.734c-.72183232.2218498-1.25716386.8313526-1.38401828 1.5757766-.12685443.7444241.17640003 1.496827.78401828 1.9452234l8.045 5.9-13.289 13.29c-.77943189.7807702-.77943189 2.0452298 0 2.826z" data-original="#000000" class="active-path" data-old_color="#000000" fill="#D6722D"/><path id="Shape" d="m18.707 27.237-5.387 1.653c-.5279842.1620956-.8245956.7215158-.6625 1.2495s.7215158.8245956 1.2495.6625l5.386-1.653c.346437-.1006452.6118081-.3800871.6944364-.7312574.0826283-.3511704-.0302971-.7196232-.2955088-.9641857-.2652116-.2445624-.6415908-.3273173-.9849276-.2165569z" data-original="#000000" class="active-path" data-old_color="#000000" fill="#D6722D"/><path id="Shape" d="m26.689 25.836c-.161869-.5279433-.7210219-.8247555-1.249-.663l-1.733.531c-.346437.1006452-.6118081.3800871-.6944364.7312574-.0826283.3511704.0302971.7196232.2955088.9641857.2652116.2445624.6415908.3273173.9849276.2165569l1.733-.531c.5279433-.161869.8247555-.7210219.663-1.249z" data-original="#000000" class="active-path" data-old_color="#000000" fill="#D6722D"/><path id="Shape" d="m42.877 14c.257394.0640764.5297006.0232656.7570014-.1134524.2273008-.1367181.3909717-.3581412.4549986-.6155476.3573041-1.423762 1.6923912-2.3798754 3.1553753-2.2597001 1.462984.1201753 2.6241495 1.2813408 2.7443248 2.7443248.1201753 1.4629841-.8359381 2.7980712-2.2597001 3.1553753-.5359923.1333768-.8623767.6760077-.7289999 1.212.1333767.5359923.6760076.8623767 1.2119999.729 2.3742702-.5939902 3.9695964-2.8193542 3.7698251-5.2586317-.1997714-2.4392775-2.1359159-4.37542197-4.5751934-4.57519335s-4.6646415 1.39555485-5.2586317 3.76982505c-.0640764.257394-.0232656.5297006.1134524.7570014.1367181.2273008.3581412.3909717.6155476.4549986z" data-original="#000000" class="active-path" data-old_color="#000000" fill="#D6722D"/></g></g></g> </svg>
