<?xml version="1.0" encoding="UTF-8" standalone="no"?>
<!DOCTYPE svg PUBLIC "-//W3C//DTD SVG 1.1//EN" "http://www.w3.org/Graphics/SVG/1.1/DTD/svg11.dtd">
<svg version="1.1" xmlns="http://www.w3.org/2000/svg" xmlns:xlink="http://www.w3.org/1999/xlink" preserveAspectRatio="xMidYMid meet" viewBox="1.0010000000000012 38.14384518628177 152.81099999999998 57.86015481371822" width="153" height="58"><defs><path d="M1 65.42C1 68.43 1 92.47 1 95.48C1 95.77 1.25 96 1.56 96C4.75 96 30.32 96 33.52 96C33.83 96 34.08 95.77 34.08 95.48C34.08 92.47 34.08 68.42 34.08 65.42C34.08 65.13 33.83 64.89 33.52 64.89C31.39 64.89 20.74 64.89 1.56 64.89C1.19 65.05 1 65.23 1 65.42Z" id="d1BD5iqV8t"></path><path d="M58.42 95.65C67.44 95.65 74.77 88.76 74.77 80.28C74.77 71.79 67.44 64.89 58.42 64.89C49.4 64.89 42.07 71.79 42.07 80.28C42.07 88.76 49.4 95.65 58.42 95.65Z" id="b3A7iMalIv"></path><path d="M95.65 38.53C94.07 44.2 81.43 89.51 79.86 95.17C79.81 95.33 79.85 95.5 79.95 95.63C80.06 95.76 80.22 95.83 80.39 95.83C83.57 95.83 108.99 95.83 112.17 95.83C112.34 95.83 112.5 95.76 112.61 95.63C112.72 95.5 112.75 95.33 112.71 95.17C111.11 89.51 98.33 44.2 96.73 38.53C96.66 38.3 96.44 38.14 96.19 38.14C95.94 38.14 95.72 38.3 95.65 38.53Z" id="ciOsxA8Ia"></path><path d="M120.74 65.09C120.74 68.09 120.74 92.14 120.74 95.15C120.74 95.44 120.99 95.67 121.3 95.67C124.49 95.67 150.06 95.67 153.25 95.67C153.56 95.67 153.81 95.44 153.81 95.15C153.81 92.14 153.81 68.09 153.81 65.08C153.81 64.8 153.56 64.56 153.25 64.56C151.12 64.56 140.47 64.56 121.3 64.56C120.92 64.72 120.74 64.89 120.74 65.09Z" id="a4VSf6MGG"></path></defs><g><g><use xlink:href="#d1BD5iqV8t" opacity="1" fill="#ffffff" fill-opacity="1"></use><g><use xlink:href="#d1BD5iqV8t" opacity="1" fill-opacity="0" stroke="#000000" stroke-width="1" stroke-opacity="0"></use></g></g><g><use xlink:href="#b3A7iMalIv" opacity="1" fill="#ffffff" fill-opacity="1"></use><g><use xlink:href="#b3A7iMalIv" opacity="1" fill-opacity="0" stroke="#000000" stroke-width="1" stroke-opacity="0"></use></g></g><g><use xlink:href="#ciOsxA8Ia" opacity="1" fill="#ffffff" fill-opacity="1"></use><g><use xlink:href="#ciOsxA8Ia" opacity="1" fill-opacity="0" stroke="#000000" stroke-width="1" stroke-opacity="0"></use></g></g><g><use xlink:href="#a4VSf6MGG" opacity="1" fill="#ffffff" fill-opacity="1"></use><g><use xlink:href="#a4VSf6MGG" opacity="1" fill-opacity="0" stroke="#000000" stroke-width="1" stroke-opacity="0"></use></g></g></g></svg>