<svg enable-background="new 0 0 512 512" height="512" viewBox="0 0 512 512" width="512" xmlns="http://www.w3.org/2000/svg"><path d="m464.866.026c-34.849 0-63.2 28.351-63.2 63.2v80.317c0 75.258-57.367 137.368-130.668 144.901v-258.444h9.101c8.284 0 15-6.716 15-15s-6.716-15-15-15h-48.201c-8.284 0-15 6.716-15 15s6.716 15 15 15h9.101v258.445c-73.299-7.533-130.665-69.643-130.665-144.901v-80.317c0-34.849-28.352-63.2-63.201-63.2-8.284 0-15 6.716-15 15s6.716 15 15 15c18.307 0 33.201 14.893 33.201 33.2v80.317c0 91.811 70.799 167.385 160.665 175.021v163.435h-33.198c-8.284 0-15 6.716-15 15s6.716 15 15 15h96.4c8.284 0 15-6.716 15-15s-6.716-15-15-15h-33.202v-163.434c89.868-7.637 160.668-83.211 160.668-175.022v-80.317c0-18.307 14.894-33.2 33.2-33.2 8.284 0 15-6.716 15-15-.001-8.285-6.717-15.001-15.001-15.001z" fill="#fff"/></svg>