<?xml version="1.0"?>
<svg xmlns="http://www.w3.org/2000/svg" xmlns:xlink="http://www.w3.org/1999/xlink" version="1.1" id="Layer_1" x="0px" y="0px" viewBox="0 0 512 512" style="enable-background:new 0 0 512 512;" xml:space="preserve" width="512px" height="512px"><g><g id="XMLID_2531_">
	<g id="XMLID_441_">
		<path id="XMLID_1088_" d="M502,368h-35.323l29.229-16.875c6.927-3.999,11.881-10.456,13.951-18.181s1.008-15.794-2.991-22.721    l-77.029-133.418l-57.549-99.679c0,0-0.001-0.001-0.001-0.002l-19.478-33.737c-8.256-14.298-26.604-19.213-40.902-10.96v0    L260,62.395V50c0-16.542-13.458-30-30-30h-88c-7.678,0-14.688,2.902-20,7.663C116.688,22.902,109.678,20,102,20H30    C13.458,20,0,33.458,0,50v38.901v230.198V358c0,4.626,1.054,9.01,2.932,12.926C1.121,372.736,0,375.237,0,378v64    c0,5.523,4.478,10,10,10h44v30c0,5.523,4.478,10,10,10h75c5.522,0,10-4.477,10-10v-30h60.998c5.522,0,10-4.477,10-10    s-4.478-10-10-10H20v-44h472v44h-44h-75h-82.999c-5.522,0-10,4.477-10,10s4.478,10,10,10H363v30c0,5.523,4.478,10,10,10h75    c5.522,0,10-4.477,10-10v-30h44c5.522,0,10-4.477,10-10v-64C512,372.477,507.522,368,502,368z M129,452v20H74v-20H129z     M490.538,327.767c-0.688,2.565-2.332,4.709-4.633,6.037l-56.952,32.882c-1.428,0.825-2.978,1.247-4.522,1.314h-0.758    c-3.322-0.11-6.519-1.869-8.301-4.953l-14.479-25.079l74.173-42.824l14.479,25.079    C490.873,322.523,491.226,325.202,490.538,327.767z M210,248.012c-5.522,0-10,4.477-10,10v51.087h-68V98.901h108v210.198h-20    v-51.087C220,252.489,215.522,248.012,210,248.012z M20,98.901h92v210.198H20V98.901z M260,358v-38.901V133.934l3.466,6.003    c0.002,0.004,0.004,0.009,0.007,0.013l115.1,199.357l0.001,0.002L395.138,368H258.28C259.39,364.87,260,361.506,260,358z     M412.516,186.805l52.549,91.019l-74.173,42.824L285.793,138.61l74.173-42.823L412.516,186.805z M264.953,82.629l56.952-32.881v0    c4.746-2.739,10.841-1.109,13.582,3.639l14.479,25.079l-74.173,42.823l-14.479-25.079c-0.827-1.432-1.249-2.986-1.314-4.534    v-0.713C260.098,87.629,261.858,84.417,264.953,82.629z M142,40h88c5.514,0,10,4.486,10,10v28.901H132V50    C132,44.486,136.486,40,142,40z M30,40h72c5.514,0,10,4.486,10,10v28.901H20V50C20,44.486,24.486,40,30,40z M30,368    c-5.514,0-10-4.486-10-10v-28.901h92V358c0,5.514-4.486,10-10,10H30z M142,368c-5.514,0-10-4.486-10-10v-28.901h108V358    c0,5.514-4.486,10-10,10H142z M438,472h-55v-20h55V472z" data-original="#000000" class="active-path" data-old_color="#000000" fill="#FFFFFF"/>
		<path id="XMLID_1252_" d="M250,432c-2.63,0-5.21,1.07-7.07,2.93c-1.86,1.86-2.93,4.44-2.93,7.07c0,2.63,1.069,5.21,2.93,7.07    S247.37,452,250,452s5.21-1.07,7.069-2.93c1.86-1.86,2.931-4.44,2.931-7.07c0-2.63-1.07-5.21-2.931-7.07    C255.21,433.07,252.63,432,250,432z" data-original="#000000" class="active-path" data-old_color="#000000" fill="#FFFFFF"/>
		<path id="XMLID_1253_" d="M217.069,210.94c-1.859-1.86-4.439-2.93-7.069-2.93s-5.21,1.07-7.07,2.93    c-1.86,1.86-2.93,4.44-2.93,7.07c0,2.64,1.069,5.21,2.93,7.07c1.86,1.86,4.44,2.93,7.07,2.93s5.21-1.07,7.069-2.93    c1.86-1.86,2.931-4.44,2.931-7.07S218.93,212.8,217.069,210.94z" data-original="#000000" class="active-path" data-old_color="#000000" fill="#FFFFFF"/>
	</g>
</g></g> </svg>
