<?xml version="1.0"?>
<svg xmlns="http://www.w3.org/2000/svg" height="512px" viewBox="0 0 44 60" width="512px"><g><g id="009---Russian-Doll" transform="translate(0 -1)"><path id="Shape" d="m6.84 57c4.06 3.29 10 4 15.16 4s11.1-.74 15.16-4 6.14-8.52 6.1-14.64c0-6.93-2.79-13.25-6.53-19.1-2.02-3.17-1.73-5.77-1.73-9.26.0005948-3.4898028-1.4019402-6.83330159-3.8920693-9.27829246-2.4901292-2.44499088-5.8587227-3.78613472-9.3479307-3.72170754-7.17726.28090745-12.83039946 6.21758999-12.76 13.4 0 3.38.24 5.74-1.83 9-3.64 5.67-6.39 12.18-6.43 18.94-.04 6.1 2.19 11.44 6.1 14.66zm15.16 2c-8.17 0-14.9-1.7-17.92-9.22.23727163-.2157629.35666374-.5322348.32103057-.8509537-.03563316-.3187189-.22196775-.6010102-.50103057-.7590463l-.45-.27c-.18216092-.6252825-.33235549-1.2594373-.45-1.9 2.41 1.3 7.73 3 19 3s16.55-1.72 19-3c-.1038.6465796-.2406459 1.2874189-.41 1.92l-.45.27c-.2790628.1580361-.4653974.4403274-.5010306.7590463-.0356331.3187189.083759.6351908.3210306.8509537-3.06 7.48-9.75 9.2-17.96 9.2zm-13.15-34.54c2.46-3.83 2.15-6.86 2.15-10.06-.0838545-6.17508973 4.8258534-11.26333246 11-11.4 2.9173814 0 5.7152744 1.15892524 7.7781746 3.22182541 2.0629002 2.06290016 3.2218254 4.86079319 3.2218254 7.77817459 0 3.79-.28 6.69 2 10.3.988313 1.5333152 1.8929678 3.1189646 2.71 4.75-2.89.82-11.86 2.78-14.86-3.48-.1670864-.3449903-.5166774-.5641101-.9-.5641101s-.7329136.2191198-.9.5641101c-3 6.24-12 4.29-14.86 3.48.79972903-1.578759 1.68780401-3.1111892 2.66-4.59zm20.15 10.8c-2.427789.5829655-4.9412265-.5583824-6.1-2.77-.1801377-.3035865-.5069924-.489706-.86-.489706s-.6798623.1861195-.86.489706c-1.1667034 2.2465269-3.7266857 3.3939624-6.18 2.77.1628901-1.1993209.4237626-2.383281.78-3.54 2.4768238-.3877662 4.7066078-1.7213348 6.22-3.72 1.4960729 1.9989482 3.7066736 3.3425061 6.17 3.75.3783632 1.1435944.6560859 2.3180601.83 3.51zm-23.62-4.37c2.67974026.8248186 5.4776346 1.1998986 8.28 1.11-.3787653 1.3022339-.6003404 2.6451137-.66 4-.0003967.4098038.249279.7783727.63.93 2.9755094 1.1293942 6.3398711.2410741 8.37-2.21 2.0301289 2.4510741 5.3944906 3.3393942 8.37 2.21.380721-.1516273.6303967-.5201962.63-.93-.0643353-1.3551405-.2892409-2.6978605-.67-4 2.8053765.1143689 5.6095378-.2543326 8.29-1.09 3 6.77 2.64 11.66 2.64 11.45v1c-.07.05-3.26 3.64-19.26 3.64s-19.19-3.59-19.2-3.6c-.12855351-4.314244.75503876-8.5986391 2.58-12.51z" data-original="#000000" class="active-path" data-old_color="#000000" fill="#FFFFFF"/><path id="Shape" d="m22 23c2.7633454-.0005761 5.3732547-1.2705725 7.0789572-3.4446602 1.7057025-2.1740876 2.318105-5.0112482 1.6610428-7.6953398 0 0 0 0 0-.06-1.0178646-3.98469996-4.607351-6.77253507-8.72-6.77253507s-7.7021354 2.78783511-8.72 6.77253507v.06c-.6554281 2.6772874-.0478829 5.507293 1.6486678 7.679658 1.6965507 2.1723649 4.2950141 3.4475242 7.0513322 3.460342zm0-2c-2.0009912-.0001769-3.906247-.8566811-5.2345652-2.3531893-1.3283182-1.4965081-1.9526952-3.4899354-1.7154348-5.4768107 2.79.26 5.52-.49 7-2.91 1.43 2.42 4.16 3.17 7 2.91.2395485 2.0043059-.3977966 4.0144553-1.7484664 5.5145609s-3.2831672 2.3441218-5.3015336 2.3154391zm6.41-9.8c-3 .17-5-1-5.33-4.11 2.3619467.36992141 4.3717588 1.91970143 5.33 4.11zm-7.49-4.11c-.34 2.84-2 4.3-5.33 4.11.9582412-2.19029857 2.9680533-3.74007859 5.33-4.11z" data-original="#000000" class="active-path" data-old_color="#000000" fill="#FFFFFF"/><path id="Shape" d="m14.53 50.69c-.65-.06-1.27-.12-1.86-.2-.3572656-.0428719-.7102645.1081118-.9260254.396077-.2157609.2879651-.2615047.6691629-.12 1 .1415047.330837.4487598.5610511.8060254.603923.6.07 1.24.14 1.91.2.3572656.0339402.7054995-.1252966.9135254-.4177276.2080259-.2924309.2442397-.6736288.095-1s-.4612598-.5483322-.8185254-.5822724z" data-original="#000000" class="active-path" data-old_color="#000000" fill="#FFFFFF"/><path id="Shape" d="m36.78 49.45c-.53.15-1.12.3-1.78.44-.3572656.0750258-.6473668.3349514-.7610254.6818653-.1136586.346914-.033607.7281118.21 1s.6137598.3931605.9710254.3181347c.7-.14 1.33-.3 1.9-.46.2662939-.0733079.4904093-.2534901.6192046-.4978224s.1507996-.5310536.0607954-.7921776c-.1504801-.5241937-.6932179-.8311519-1.22-.69z" data-original="#000000" class="active-path" data-old_color="#000000" fill="#FFFFFF"/><path id="Shape" d="m31.35 50.49-1.86.2c-.5522847.0524671-.9574671.5427153-.905 1.095s.5427153.9574671 1.095.905c.67-.06 1.31-.13 1.91-.2.2642122-.0324346.5045886-.1688737.6678869-.3790968.1632982-.2102231.2360399-.4768785.2021131-.7409032-.030086-.2640713-.1640578-.5053027-.3723271-.670417-.2082692-.1651144-.4737008-.2405271-.7376729-.209583z" data-original="#000000" class="active-path" data-old_color="#000000" fill="#FFFFFF"/><path id="Shape" d="m9 49.89c-.65-.14-1.25-.28-1.78-.43-.35247527-.1280238-.74695159-.0480823-1.02177628.2070653-.27482468.2551477-.38379842.6426098-.2822648 1.0036082s.39650633.6348475.76404108.7093265c.57.16 1.2.32 1.9.47.55228475.1159798 1.0940202-.2377153 1.21-.79s-.23771525-1.0940202-.79-1.21z" data-original="#000000" class="active-path" data-old_color="#000000" fill="#FFFFFF"/><path id="Shape" d="m25.76 50.93h-1.87c-.5522847 0-1 .4477153-1 1s.4477153 1 1 1h1.93c.5522847 0 1-.4477153 1-1 .0004972-.2759471-.1130554-.5398345-.313778-.7291954-.2007225-.1893608-.4707716-.2873619-.746222-.2708046z" data-original="#000000" class="active-path" data-old_color="#000000" fill="#FFFFFF"/><path id="Shape" d="m20.13 51h-1.87c-.5522847 0-1 .4477153-1 1s.4477153 1 1 1h1.93c.5522847 0 1-.4477153 1-1s-.4477153-1-1-1z" data-original="#000000" class="active-path" data-old_color="#000000" fill="#FFFFFF"/><path id="Shape" d="m7.66 43.38c3.62 2.19 6.61-1.67 4.26-6.32-.1625558-.3197527-.4833497-.5284939-.8415416-.5475927-.3581918-.0190989-.6993639.1543461-.895.455-.195636.3006538-.21601424.68284-.0534584 1.0025927 1.14 2.24.71 5-1.44 3.7-.77408066-.5125916-1.39584799-1.2241698-1.8-2.06-.1440974-.3460386-.46961514-.5824323-.84325912-.6123817-.37364399-.0299494-.73265995.1515756-.93003682.4702434-.19737686.3186678-.19996479.7209575-.00670406 1.0421383.56591747 1.1756203 1.44913926 2.1696777 2.55 2.87z" data-original="#000000" class="active-path" data-old_color="#000000" fill="#FFFFFF"/><path id="Shape" d="m33 43.69c2.21 1.12 4.73-.88 5.89-3.18.2013504-.4835272-.0045141-1.0404963-.4719378-1.2768341s-1.0380149-.0719586-1.3080622.3768341c-.404152.8358302-1.0259193 1.5474084-1.8 2.06-2.15 1.33-2.58-1.46-1.44-3.67.1625558-.3197527.1421776-.7019389-.0534584-1.0025927-.1956361-.3006539-.5368082-.4740989-.895-.455-.3581919.0190988-.6789858.22784-.8415416.5475927-1.39 2.72-.99 5.64.92 6.6z" data-original="#000000" class="active-path" data-old_color="#000000" fill="#FFFFFF"/><path id="Shape" d="m19 16c-.5522847 0-1-.4477153-1-1s.4477153-1 1-1 1 .4477153 1 1-.4477153 1-1 1z" data-original="#000000" class="active-path" data-old_color="#000000" fill="#FFFFFF"/><path id="Shape" d="m25 16c-.5522847 0-1-.4477153-1-1s.4477153-1 1-1 1 .4477153 1 1-.4477153 1-1 1z" data-original="#000000" class="active-path" data-old_color="#000000" fill="#FFFFFF"/></g></g> </svg>
