<?xml version="1.0"?>
<svg xmlns="http://www.w3.org/2000/svg" xmlns:xlink="http://www.w3.org/1999/xlink" version="1.1" id="Capa_1" x="0px" y="0px" viewBox="0 0 511.999 511.999" style="enable-background:new 0 0 511.999 511.999;" xml:space="preserve" width="512px" height="512px"><g><g>
	<g>
		<path d="M510.394,206.3c-9.332-34.829-55.128-54.009-128.951-54.009c-1.576,0-3.17,0.009-4.776,0.028l-23.387-30.48    C326.37,85.28,283.265,63.46,237.936,63.46c-12.489,0-24.99,1.653-37.157,4.913c-28.42,7.615-53.438,23.487-72.348,45.9    c-18.433,21.847-29.838,48.349-32.99,76.654l-5.013,38.089c-28.671,16.132-51.784,33.559-67.125,50.655    c-24.546,27.354-25.347,49.335-21.697,62.958c9.331,34.824,55.133,54.004,128.969,54.004c1.786,0,3.596-0.012,5.419-0.035    l46.06,51.942l225.022-60.295l13.919-68.013c28.936-16.222,52.253-33.767,67.697-50.976    C513.242,241.901,514.044,219.922,510.394,206.3z M125.204,194.688l0.039-0.313c5.155-46.76,37.853-84.843,83.299-97.021    c9.636-2.582,19.524-3.891,29.392-3.891c35.87,0,69.984,17.295,91.258,46.264l14.624,19.062L122.11,218.194L125.204,194.688z     M109.914,252.524l261.606-70.097c3.347-0.083,6.68-0.134,9.922-0.134c41.891,0,74.495,7.093,90.224,18.853L32.773,318.748    C40.474,301.057,64.713,277.142,109.914,252.524z M381.401,364.062L192.199,414.76l-22.256-25.098L388.126,331.2L381.401,364.062z     M402.084,296.4l-261.606,70.097c-3.341,0.083-6.668,0.133-9.904,0.133c-41.898,0-74.507-7.091-90.239-18.849l438.888-117.6    C471.519,247.869,447.282,271.782,402.084,296.4z" data-original="#000000" class="active-path" data-old_color="#000000" fill="#c27180"/>
	</g>
</g></g> </svg>
