<?xml version="1.0"?>
<svg xmlns="http://www.w3.org/2000/svg" id="Capa_1" enable-background="new 0 0 512 512" height="512px" viewBox="0 0 512 512" width="512px" class=""><g><path d="m292.793 135.698c4.142 0 7.5-3.358 7.5-7.5v-6.107c0-4.142-3.358-7.5-7.5-7.5s-7.5 3.358-7.5 7.5v6.107c0 4.142 3.357 7.5 7.5 7.5zm-73.585-21.107c-4.142 0-7.5 3.358-7.5 7.5v6.107c0 4.142 3.358 7.5 7.5 7.5s7.5-3.358 7.5-7.5v-6.107c0-4.142-3.358-7.5-7.5-7.5zm51.42 8.225c-3.122-2.722-7.86-2.398-10.581.725-.602.69-1.927 1.847-4.047 1.847s-3.445-1.157-4.047-1.847c-2.722-3.123-7.46-3.447-10.581-.725-3.123 2.722-3.447 7.459-.725 10.582 3.872 4.443 9.469 6.991 15.354 6.991s11.481-2.548 15.353-6.991c2.722-3.123 2.397-7.86-.726-10.582zm91.917 77.741c-4.063-4.583-4.737-11.11-1.679-16.241 11.125-18.665 17.047-40.06 17.126-61.871.095-26.257-8.147-51.37-23.836-72.624-2.46-3.333-7.157-4.04-10.488-1.58-3.332 2.46-4.04 7.156-1.58 10.488 13.76 18.64 20.988 40.653 20.905 63.661-.069 19.128-5.26 37.886-15.012 54.247-6.417 10.767-5.075 24.379 3.34 33.871 15.865 17.897 27.975 39.924 35.633 64.079-24.612-4.885-51.318-13.439-75.346-24.182-2.765-9.933-8.884-19.999-17.328-28.443-10.377-10.377-26.37-11.784-38.279-4.238-11.91-7.546-27.903-6.138-38.279 4.238-8.444 8.444-14.563 18.509-17.328 28.442-24.028 10.744-50.734 19.297-75.346 24.183 7.658-24.155 19.768-46.181 35.632-64.078 8.416-9.495 9.762-23.1 3.35-33.855-9.827-16.483-15.021-35.384-15.021-54.661 0-29.045 11.442-56.223 32.22-76.527 20.77-20.297 48.219-31.099 77.302-30.436 21.353.492 41.877 7.357 59.353 19.854 3.369 2.408 8.054 1.631 10.463-1.738 2.409-3.37 1.631-8.054-1.738-10.463-19.937-14.257-43.358-22.088-67.734-22.65-33.152-.762-64.45 11.561-88.132 34.704-23.689 23.15-36.736 54.138-36.736 87.255 0 21.979 5.926 43.537 17.138 62.342 3.052 5.119 2.373 11.639-1.69 16.223-31.511 35.548-48.864 83.69-48.864 135.56 0 9.092.551 17.902 1.635 26.406.003.026.006.052.009.077 4.352 34.04 17.308 63.147 38.154 85.548-4.561 4.063-7.811 9.388-9.342 15.441-3.232 12.78 2.008 26.208 13.04 33.414 3.468 2.265 8.116 1.29 10.381-2.178s1.29-8.116-2.178-10.381c-5.67-3.703-8.363-10.606-6.701-17.177 1.039-4.109 3.616-7.567 7.256-9.737s7.907-2.793 12.015-1.754c25.786 6.522 65.32 9.493 91.14 9.493s65.354-2.971 91.139-9.493c8.479-2.146 17.126 3.01 19.272 11.491 2.145 8.481-3.01 17.125-11.491 19.271-32.649 8.259-77.541 10.462-98.92 10.462-16.922 0-46.015-1.386-72.315-5.292-4.097-.614-7.912 2.22-8.52 6.317s2.22 7.912 6.317 8.52c27.079 4.022 56.249 5.455 74.518 5.455 22.072 0 68.52-2.3 102.599-10.919 16.499-4.174 26.527-20.992 22.354-37.491-1.566-6.19-4.911-11.469-9.352-15.428 20.852-22.403 33.812-51.514 38.164-85.56.003-.026.006-.051.009-.077 1.084-8.505 1.635-17.315 1.635-26.407.001-51.87-17.353-100.013-48.864-135.561zm-101.242 32.011c3.083-3.083 7.134-4.625 11.185-4.625s8.101 1.542 11.185 4.625c6.737 6.738 11.718 14.938 13.666 22.498.162.629.297 1.248.414 1.857.006.039.017.077.023.116.891 4.77.387 8.813-1.401 10.601-2.03 2.03-6.967 2.408-12.574.964-7.56-1.947-15.76-6.928-22.498-13.666-2.987-2.988-4.633-6.959-4.633-11.185 0-4.225 1.646-8.197 4.633-11.185zm-47.077 24.462c.006-.036.016-.071.022-.107.116-.609.252-1.228.414-1.857 1.947-7.56 6.928-15.76 13.666-22.498 4.606-4.606 11.369-5.769 17.068-3.494-5.09 9.406-4.937 20.918.466 30.194-5.626 4.523-11.833 7.834-17.663 9.335-5.609 1.444-10.543 1.066-12.574-.964-1.788-1.789-2.293-5.835-1.399-10.609zm-98.636 79.088c0-3.452.097-6.894.269-10.323 9.296 4.273 20.347 7.997 34.868 11.812 7.448 1.957 11.916 9.609 9.959 17.057-1.612 6.137-7.162 10.423-13.494 10.423-1.194 0-2.393-.156-3.563-.463-10.537-2.769-19.247-5.452-27.02-8.329-.675-6.534-1.019-13.264-1.019-20.177zm242.064 104.907c-4.544-1.007-9.381-1.006-14.193.21-24.542 6.207-62.54 9.035-87.461 9.035s-62.92-2.828-87.461-9.035c-4.733-1.198-9.575-1.252-14.208-.227-17.751-17.782-29.629-40.834-35.159-67.929 6.193 2.049 12.968 4.034 20.647 6.052 2.415.634 4.896.956 7.374.956 13.143 0 24.658-8.887 28.002-21.611 4.058-15.448-5.208-31.317-20.656-35.376-16.38-4.303-27.874-8.392-37.259-13.307.833-6.467 1.979-12.855 3.408-19.139 25.265-4.372 53.152-12.698 78.679-23.447.879 4.382 2.773 8.16 5.653 11.039 4.101 4.101 10.012 6.225 16.919 6.225 3.152 0 6.512-.442 10.002-1.341 8.226-2.119 16.579-6.576 24.062-12.765 11.088 9.194 23.547 14.178 34.063 14.178 6.724 0 12.654-2.034 16.916-6.296 2.879-2.879 4.773-6.657 5.653-11.04 25.526 10.748 53.415 19.074 78.679 23.446 1.428 6.284 2.574 12.672 3.408 19.139-9.385 4.915-20.879 9.004-37.259 13.307-15.448 4.059-24.714 19.929-20.656 35.377 3.344 12.724 14.858 21.611 28.002 21.611 2.479 0 4.959-.321 7.375-.956 7.679-2.018 14.453-4.002 20.645-6.051-5.532 27.103-17.415 50.161-35.175 67.945zm37.737-84.73c-7.772 2.877-16.482 5.56-27.018 8.329-1.171.308-2.371.463-3.564.463-6.333 0-11.882-4.286-13.494-10.423-1.957-7.448 2.511-15.1 9.959-17.057 14.521-3.815 25.572-7.539 34.868-11.812.172 3.43.269 6.871.269 10.323-.001 6.913-.345 13.643-1.02 20.177zm-104.555-38.876c-.912.086-1.813.221-2.703.394-.111-.9-.26-1.799-.46-2.692-1.751-7.813-6.782-14.501-13.803-18.35-11.189-6.135-24.549-6.136-35.739-.001-7.021 3.85-12.052 10.538-13.803 18.351-.2.893-.35 1.792-.461 2.692-.89-.173-1.791-.308-2.702-.394-7.974-.749-15.888 1.969-21.718 7.456-9.292 8.746-13.42 21.453-11.044 33.991 1.491 7.866 6.298 14.717 13.187 18.797.788.467 1.6.877 2.423 1.261-.441.796-.85 1.614-1.215 2.458-3.176 7.35-3.037 15.718.38 22.958 5.447 11.54 16.256 19.394 28.915 21.008 1.176.15 2.352.224 3.524.224 6.743 0 13.31-2.449 18.429-6.957.687-.605 1.336-1.244 1.955-1.907.619.663 1.268 1.302 1.954 1.907 5.12 4.508 11.685 6.957 18.429 6.957 1.171 0 2.349-.074 3.524-.224 12.658-1.614 23.467-9.468 28.914-21.008 3.418-7.241 3.557-15.608.381-22.958-.364-.844-.773-1.661-1.215-2.457.823-.384 1.635-.794 2.423-1.261 6.889-4.08 11.695-10.931 13.187-18.797 2.376-12.538-1.752-25.245-11.044-33.991-5.831-5.488-13.745-8.203-21.718-7.457zm-81.603 47.338c-3.23-1.913-5.393-4.997-6.093-8.685-1.417-7.478 1.045-15.057 6.588-20.274 2.733-2.573 6.297-3.795 10.033-3.445 3.737.351 7.01 2.217 9.216 5.253l14.888 20.491-24.088 7.827c-3.572 1.161-7.315.745-10.544-1.167zm39.267 32.934c0 3.753-1.551 7.187-4.368 9.667-2.817 2.481-6.42 3.588-10.143 3.111-7.55-.962-13.997-5.647-17.246-12.53-1.603-3.395-1.665-7.161-.176-10.607 1.489-3.445 4.274-5.981 7.844-7.142l24.088-7.827v25.328zm7.5-48.41-14.886-20.489c-.001 0-.001-.001-.001-.002l-.001-.001c-2.206-3.036-2.968-6.725-2.147-10.387.821-3.663 3.085-6.674 6.377-8.478 6.674-3.659 14.643-3.659 21.318-.001 3.291 1.805 5.556 4.816 6.376 8.479.821 3.662.058 7.352-2.148 10.388zm39.256 48.658c-3.249 6.883-9.696 11.568-17.246 12.53-3.726.477-7.326-.63-10.142-3.111-2.817-2.48-4.368-5.913-4.368-9.667v-25.328l24.088 7.827c3.57 1.16 6.355 3.696 7.844 7.142 1.489 3.445 1.427 7.212-.176 10.607zm13.604-41.866c-.699 3.688-2.863 6.771-6.092 8.684-3.23 1.913-6.973 2.328-10.545 1.167l-24.088-7.827 14.887-20.491c2.207-3.037 5.479-4.902 9.217-5.253s7.3.873 10.033 3.445c5.543 5.217 8.005 12.796 6.588 20.275zm-52.86-313.822c-38.921 0-71.408 28.001-78.42 64.912-.022.101-.037.204-.055.307-.882 4.744-1.366 9.626-1.366 14.622 0 44.024 35.816 79.841 79.841 79.841s79.841-35.816 79.841-79.841c0-6.604-.821-13.017-2.34-19.158-.046-.259-.105-.514-.176-.763-8.872-34.418-40.176-59.92-77.325-59.92zm64.841 79.84c0 35.753-29.087 64.841-64.841 64.841s-64.841-29.087-64.841-64.841c0-2.008.105-3.992.285-5.954 26.072-.737 65.631-5.608 85.255-19.798 9.876 9.248 26.454 15.287 43.336 15.568.526 3.319.806 6.719.806 10.184zm-36.999-40.405c-1.259-2.061-3.434-3.389-5.842-3.568-2.402-.179-4.755.811-6.307 2.662-7.643 9.121-36.731 18.812-77.01 20.27 8.76-25.452 32.928-43.798 61.317-43.798 26.728 0 49.725 16.258 59.636 39.401-14.728-1.408-27.579-8.069-31.794-14.967z" data-original="#000000" class="active-path" data-old_color="#000000" fill="#FFFFFF"/></g> </svg>
