<?xml version="1.0"?>
<svg xmlns="http://www.w3.org/2000/svg" height="512px" viewBox="0 0 60 57" width="512px" class=""><g><g id="Page-1" fill="none" fill-rule="evenodd"><g id="029---Book-Shelf" fill="rgb(0,0,0)" fill-rule="nonzero"><path id="Shape" d="m57 43h-1v-35c0-1.65685425-1.3431458-3-3-3h-3c-1.6568542 0-3 1.34314575-3 3v3.184c-.320257-.1184378-.6585603-.1806856-1-.184h-3c-.3414397.0033144-.679743.0655622-1 .184v-8.184c0-1.65685425-1.3431458-3-3-3h-10c-1.6568542 0-3 1.34314575-3 3v5.184c-.320257-.11843775-.6585603-.18068557-1-.184h-4c-.3959531-.00027101-.7879661.07860758-1.153.232-.3124726-.96523553-1.0916276-1.70714455-2.071-1.972l-2.9-.776c-.7687395-.2064743-1.588022-.09897601-2.277474.29882801-.6894519.39780402-1.1925479 1.05329942-1.398526 1.82217199l-5.038 18.8-1.429 5.348-2.333 8.693c-.20858478.7685742-.10053414 1.5886786.3 2.277.06122375.0990261.12799696.1945118.2.286-1.61419058.0538314-2.8960521 1.3759169-2.9 2.991v2c0 1.6568542 1.34314575 3 3 3h1v3c0 1.6568542 1.34314575 3 3 3h4c1.6568542 0 3-1.3431458 3-3v-3h32v3c0 1.6568542 1.3431458 3 3 3h4c1.6568542 0 3-1.3431458 3-3v-3h1c1.6568542 0 3-1.3431458 3-3v-2c0-1.6568542-1.3431458-3-3-3zm-15 0v-7h5v7zm-14 0v-4h12v4zm-8 0v-3h6v3zm-8.983 0c.026-.075.06-.146.081-.224l6.902-25.76v25.984zm-1.727-20.522 1.258-4.7 4.829 1.294-3.623 13.528-4.83-1.294zm18.71-14.478h12v29h-12zm26 24h-5v-14h5zm-7 1v1h-5v-12h5zm-21 5h-6v-23h6zm23-3v-1h5v9h-5zm0-27c0-.55228475.4477153-1 1-1h3c.5522847 0 1 .44771525 1 1v8h-5zm-6 5h3c.5522847 0 1 .4477153 1 1v6h-5v-6c0-.5522847.4477153-1 1-1zm-14-11h10c.5522847 0 1 .44771525 1 1v3h-12v-3c0-.55228475.4477153-1 1-1zm-8 8h4c.5522847 0 1 .4477153 1 1v2h-6v-2c0-.5522847.4477153-1 1-1zm-7.864-1.877c.1429996-.53305138.6908077-.84947318 1.224-.707l2.9.776c.2562166.06866321.4746553.23631056.6072483.46605097.1325931.22974041.1684756.50274873.0997517.75894903l-2.067 7.728-4.83-1.295zm-8.8 32.841 2.07-7.727 4.831 1.294-2.071 7.727c-.06865161.2564395-.23645288.4750576-.46642406.6076755-.22997117.132618-.50323711.1683511-.75957594.0993245l-2.9-.776c-.25621658-.0686632-.47465529-.2363106-.60724833-.466051-.13259303-.2297404-.1684756-.5027487-.09975167-.758949zm7.664 13.036c0 .5522847-.4477153 1-1 1h-4c-.55228475 0-1-.4477153-1-1v-3h6zm42 0c0 .5522847-.4477153 1-1 1h-4c-.5522847 0-1-.4477153-1-1v-3h6zm4-6c0 .5522847-.4477153 1-1 1h-54c-.55228475 0-1-.4477153-1-1v-2c0-.5522847.44771525-1 1-1h54c.5522847 0 1 .4477153 1 1z" data-original="#000000" class="active-path" data-old_color="#000000" fill="#FFFFFF"/><path id="Shape" d="m31 13h6c.5522847 0 1-.4477153 1-1s-.4477153-1-1-1h-6c-.5522847 0-1 .4477153-1 1s.4477153 1 1 1z" data-original="#000000" class="active-path" data-old_color="#000000" fill="#FFFFFF"/><path id="Shape" d="m31 17h6c.5522847 0 1-.4477153 1-1s-.4477153-1-1-1h-6c-.5522847 0-1 .4477153-1 1s.4477153 1 1 1z" data-original="#000000" class="active-path" data-old_color="#000000" fill="#FFFFFF"/></g></g></g> </svg>
