<?xml version="1.0"?>
<svg xmlns="http://www.w3.org/2000/svg" viewBox="0 0 96 96" width="512px" height="512px" class=""><g><g id="_26-royalty_customer" data-name="26-royalty customer"><path d="M68,20A20,20,0,1,0,48,40,20.023,20.023,0,0,0,68,20ZM48,32A12,12,0,1,1,60,20,12.013,12.013,0,0,1,48,32Z" data-original="#000000" class="active-path" data-old_color="#000000" fill="#FFFFFF"/><path d="M87.39,58.813A13.8,13.8,0,0,0,76,55.909V52A12.013,12.013,0,0,0,64,40H32A12.013,12.013,0,0,0,20,52V84a4,4,0,0,0,4,4H54.007A88.3,88.3,0,0,0,66.2,95.571a4.16,4.16,0,0,0,3.6,0c1.763-.889,17.359-8.949,21.776-17.782C94.589,71.767,92.71,63.254,87.39,58.813ZM28,52a4,4,0,0,1,4-4H64a4,4,0,0,1,4,4v7.147c-10.148-6.353-16.861-2.445-19.39-.334-5.32,4.441-7.2,12.954-4.188,18.976A17.084,17.084,0,0,0,45.767,80H28ZM84.422,74.211c-2.2,4.4-10.581,10.066-16.423,13.268-5.839-3.195-14.214-8.854-16.421-13.268a8.392,8.392,0,0,1,2.158-9.256,5.458,5.458,0,0,1,3.6-1.266c3.016,0,6.254,2,8.265,3.511a4,4,0,0,0,4.8,0c2.862-2.147,8.209-5.3,11.864-2.245A8.392,8.392,0,0,1,84.422,74.211Z" data-original="#000000" class="active-path" data-old_color="#000000" fill="#FFFFFF"/><circle cx="76" cy="72" r="4" data-original="#000000" class="active-path" data-old_color="#000000" fill="#FFFFFF"/></g></g> </svg>
