<?xml version="1.0"?>
<svg xmlns="http://www.w3.org/2000/svg" xmlns:xlink="http://www.w3.org/1999/xlink" version="1.1" id="Capa_1" x="0px" y="0px" viewBox="0 0 480 480" style="enable-background:new 0 0 480 480;" xml:space="preserve" width="512px" height="512px" class=""><g><g>
	<g>
		<g>
			<path d="M480,336v-32c0-4.418-3.582-8-8-8h-24V8c0-4.418-3.582-8-8-8H40c-4.418,0-8,3.582-8,8v288H8c-4.418,0-8,3.582-8,8v32     c0,4.418,3.582,8,8,8h93.304L66.016,464H0v16h480v-16h-66.016l-35.288-120H472C476.418,344,480,340.418,480,336z M48,16h384v280     H96c4.418,0,8-3.582,8-8v-64c0-4.418-3.582-8-8-8H72c-4.418,0-8,3.582-8,8v64c0,4.418,3.582,8,8,8H48V16z M88,232v48h-8v-48H88z      M82.688,464l35.296-120h15.328L98.016,464H82.688z M114.696,464l35.288-120h180.032l35.288,120H114.696z M397.312,464h-15.328     l-35.296-120h15.328L397.312,464z M464,328H16v-16h448V328z" data-original="#000000" class="active-path" data-old_color="#000000" fill="#FFFFFF"/>
			<rect x="152" y="72" width="224" height="16" data-original="#000000" class="active-path" data-old_color="#000000" fill="#FFFFFF"/>
			<rect x="104" y="136" width="272" height="16" data-original="#000000" class="active-path" data-old_color="#000000" fill="#FFFFFF"/>
			<rect x="104" y="200" width="272" height="16" data-original="#000000" class="active-path" data-old_color="#000000" fill="#FFFFFF"/>
			<rect x="104" y="72" width="32" height="16" data-original="#000000" class="active-path" data-old_color="#000000" fill="#FFFFFF"/>
		</g>
	</g>
</g></g> </svg>
